<svg xmlns="http://www.w3.org/2000/svg" xmlns:xlink="http://www.w3.org/1999/xlink">
  <symbol id="settings" viewBox="0 0 512 512" ><g><g><g><path d="M478.904,194.936l-21.443-1.528c-3.823-12.308-8.795-24.283-14.834-35.724l14.075-16.273c12.157-14.056,11.386-35.36-1.754-48.501l-35.977-35.977c-13.157-13.154-34.474-13.915-48.531-1.728L354.179,69.3c-11.44-6.028-23.42-10.992-35.735-14.806l-1.553-21.439c-1.342-18.534-16.952-33.054-35.536-33.054h-50.88c-18.606,0-34.216,14.536-35.539,33.093l-1.529,21.445c-12.255,3.806-24.178,8.752-35.571,14.754l-16.278-14.101c-14.058-12.178-35.373-11.413-48.523,1.735L57.059,92.904c-13.146,13.144-13.913,34.452-1.747,48.51l14.068,16.255c-6.04,11.441-11.014,23.415-14.837,35.723l-21.459,1.538C14.532,196.258,0,211.868,0,230.467v50.88c0,18.59,14.525,34.2,33.065,35.537l21.423,1.545c3.814,12.314,8.777,24.294,14.804,35.735L55.19,370.442c-12.177,14.058-11.414,35.372,1.737,48.523l17.389,17.388c3.119,3.119,8.179,3.12,11.3-0.001c3.12-3.12,3.12-8.18-0.001-11.3l-17.388-17.388c-7.253-7.253-7.673-19.006-0.957-26.758l17.728-20.465c2.207-2.547,2.578-6.206,0.927-9.145c-7.56-13.462-13.497-27.793-17.644-42.595c-0.91-3.246-3.757-5.572-7.119-5.814l-26.946-1.944c-10.225-0.738-18.234-9.345-18.234-19.597v-50.88c0-10.257,8.013-18.865,18.243-19.597l26.98-1.933c3.361-0.24,6.21-2.564,7.121-5.808c4.159-14.791,10.109-29.118,17.686-42.581c1.653-2.94,1.285-6.6-0.922-9.149l-17.694-20.444c-6.709-7.751-6.287-19.502,0.963-26.75l35.977-35.977c7.254-7.253,19.006-7.672,26.758-0.957l20.464,17.729c2.546,2.207,6.207,2.578,9.145,0.927c13.417-7.538,27.697-13.46,42.442-17.603c3.245-0.912,5.569-3.762,5.809-7.125l1.924-26.967c0.729-10.233,9.337-18.249,19.597-18.249h50.88c10.249,0,18.856,8.007,19.596,18.228l1.954,26.958c0.243,3.361,2.569,6.208,5.813,7.117c14.803,4.149,29.134,10.086,42.595,17.648c2.94,1.651,6.601,1.28,9.147-0.929l20.448-17.724c7.751-6.719,19.508-6.302,26.762,0.954l35.977,35.974c7.247,7.246,7.672,18.994,0.968,26.745l-17.697,20.462c-2.205,2.549-2.573,6.209-0.92,9.146c7.574,13.462,13.522,27.789,17.68,42.583c0.912,3.245,3.762,5.569,7.125,5.809l26.965,1.923c10.235,0.729,18.252,9.338,18.252,19.597v50.88c0,10.248-8.008,18.856-18.229,19.597l-26.958,1.953c-3.361,0.243-6.208,2.569-7.117,5.814c-4.147,14.797-10.085,29.128-17.648,42.594c-1.651,2.94-1.28,6.6,0.929,9.147l17.724,20.448c6.72,7.752,6.301,19.508-0.952,26.762l-35.979,35.977c-7.247,7.248-18.995,7.672-26.745,0.968l-20.462-17.697c-2.548-2.205-6.206-2.573-9.146-0.92c-13.505,7.598-27.883,13.561-42.736,17.722c-3.245,0.91-5.572,3.757-5.814,7.12l-1.943,26.945c-0.738,10.225-9.345,18.234-19.597,18.234h-50.88c-10.256,0-18.864-8.013-19.598-18.244l-1.933-26.979c-0.24-3.361-2.564-6.21-5.808-7.121c-14.793-4.16-29.12-10.109-42.58-17.685c-2.943-1.653-6.601-1.285-9.149,0.922l-20.444,17.694c-7.752,6.709-19.502,6.284-26.75-0.963c-3.121-3.121-8.181-3.12-11.3-0.001c-3.121,3.12-3.121,8.18-0.001,11.3c13.144,13.145,34.452,13.914,48.51,1.748l16.255-14.068c11.44,6.039,23.413,11.012,35.722,14.836l1.538,21.46c1.329,18.551,16.94,33.083,35.538,33.083h50.88c18.59,0,34.2-14.524,35.536-33.066l1.544-21.422c12.37-3.83,24.399-8.819,35.889-14.884l16.273,14.075c14.054,12.156,35.359,11.387,48.501-1.754l35.978-35.978c13.154-13.155,13.913-34.473,1.727-48.53L442.7,354.18c6.03-11.444,10.993-23.422,14.806-35.734l21.439-1.553C497.48,315.548,512,299.94,512,281.355v-50.88C512,211.871,497.463,196.261,478.904,194.936z"/><path d="M256,169.176c8.733,0,17.346,1.29,25.601,3.833c4.216,1.302,8.691-1.064,9.989-5.282c1.301-4.218-1.065-8.689-5.282-9.989c-9.782-3.015-19.979-4.543-30.308-4.543c-56.687,0-102.805,46.119-102.805,102.805c0,56.688,46.119,102.806,102.805,102.806c56.687,0,102.806-46.118,102.805-102.807c0-32.445-14.843-62.315-40.722-81.948c-3.517-2.668-8.53-1.979-11.195,1.536c-2.667,3.515-1.98,8.528,1.536,11.195c21.861,16.586,34.4,41.815,34.4,69.217c0,47.874-38.95,86.824-86.824,86.824c-47.874,0-86.823-38.95-86.823-86.824C169.177,208.125,208.125,169.176,256,169.176z"/></g></g></g> </symbol>
  <symbol id="logo" viewBox="-8 0 480 480"><path d="m448 24v432c-.027344 8.824219-7.175781 15.972656-16 16h-352v-448c.027344-8.824219 7.175781-15.972656 16-16h336c8.824219.027344 15.972656 7.175781 16 16zm0 0" fill="#acabb1"/><path d="m408 40h-288c-4.417969 0-8 3.582031-8 8v376h296c4.417969 0 8-3.582031 8-8v-368c0-4.417969-3.582031-8-8-8zm0 0" fill="#5aaae7"/><path d="m429.28125 205.359375c-2.101562 8.398437-5.445312 16.433594-9.921875 23.839844l15.121094 22.722656-22.558594 22.558594-22.722656-15.121094c-7.40625 4.476563-15.441407 7.820313-23.839844 9.921875l-5.359375 26.71875h-32l-5.359375-26.71875c-8.398437-2.101562-16.433594-5.445312-23.839844-9.921875l-22.722656 15.121094-22.558594-22.558594 15.121094-22.722656c-4.476563-7.40625-7.820313-15.441407-9.921875-23.839844l-26.71875-5.359375v-32l26.71875-5.359375c2.101562-8.398437 5.445312-16.433594 9.921875-23.839844l-15.121094-22.722656 22.558594-22.558594 22.722656 15.121094c7.40625-4.476563 15.441407-7.820313 23.839844-9.921875l5.359375-26.71875h32l5.359375 26.71875c8.398437 2.101562 16.433594 5.445312 23.839844 9.921875l22.722656-15.121094 22.558594 22.558594-15.121094 22.722656c4.476563 7.40625 7.820313 15.441407 9.921875 23.839844l18.71875 3.757813v35.203124zm0 0" fill="#ff9811"/><path d="m196.640625 342.320312-41.761719-11.359374-34.878906 29.039062-8-6.640625-26.878906-22.398437-5.121094 1.359374-36.640625 10c-20.859375 5.730469-35.328125 24.683594-35.359375 46.320313v83.359375h224v-83.359375c-.03125-21.636719-14.5-40.589844-35.359375-46.320313zm0 0" fill="#00ccb3"/><path d="m154.878906 330.960938-34.878906 29.039062-8-6.640625-26.878906-22.398437 10.878906-2.960938v-22.480469c7.3125 4.183594 15.578125 6.414063 24 6.480469 8.4375.039062 16.730469-2.199219 24-6.480469v22.480469zm0 0" fill="#ffdaaa"/><path d="m162.71875 248c-10.992188-.039062-20.566406-7.507812-23.277344-18.160156l-3.441406-13.839844-4.800781 6.398438c-5.203125 6.878906-11.734375 12.644531-19.199219 16.960937-9.714844 5.660156-20.757812 8.644531-32 8.640625h-8v16c-.039062 9.425781 2.75 18.648438 8 26.480469 1.753906 2.691406 3.792969 5.183593 6.078125 7.441406 2.949219 2.972656 6.285156 5.527344 9.921875 7.597656 7.3125 4.183594 15.578125 6.414063 24 6.480469 8.4375.039062 16.730469-2.199219 24-6.480469 14.855469-8.546875 24.007812-24.382812 24-41.519531v-16zm0 0" fill="#ffdaaa"/><path d="m120 168c-2.679688-.03125-5.359375.183594-8 .640625-12.191406 1.652344-23.46875 7.375-32 16.238281-10.285156 10.417969-16.039062 24.480469-16 39.121094v24h16c11.242188.003906 22.285156-2.980469 32-8.640625 7.464844-4.316406 13.996094-10.082031 19.199219-16.960937l4.800781-6.398438 3.441406 13.839844c2.710938 10.652344 12.285156 18.121094 23.277344 18.160156h13.28125v-24c0-30.929688-25.070312-56-56-56zm0 0" fill="#57565c"/><path d="m344.398438 120h-.398438c-35.347656-.109375-64.089844 28.453125-64.199219 63.800781-.109375 35.34375 28.453125 64.089844 63.800781 64.199219h.398438c35.347656.109375 64.089844-28.453125 64.199219-63.800781.109375-35.34375-28.453125-64.089844-63.800781-64.199219zm0 0" fill="#ff6243"/><path d="m144 305.519531v8c-7.269531 4.28125-15.5625 6.519531-24 6.480469-8.421875-.066406-16.6875-2.296875-24-6.480469v-8c7.3125 4.183594 15.578125 6.414063 24 6.480469 8.4375.039062 16.730469-2.199219 24-6.480469zm0 0" fill="#f2cfa2"/><path d="m256 432h152c8.835938 0 16-7.164062 16-16v-120h-16v120h-152zm0 0"/><path d="m424 72v-24c0-8.835938-7.164062-16-16-16h-288c-8.835938 0-16 7.164062-16 16v96h16v-96h288v24zm0 0"/><path d="m440 456c0 4.417969-3.582031 8-8 8h-176v16h176c13.253906 0 24-10.746094 24-24v-176h-16zm0 0"/><path d="m88 24c0-4.417969 3.582031-8 8-8h336c4.417969 0 8 3.582031 8 8v64h16v-64c0-13.253906-10.746094-24-24-24h-336c-13.253906 0-24 10.746094-24 24v128h16zm0 0"/><path d="m256 440h16v16h-16zm0 0"/><path d="m457.601562 160.160156-21.898437-4.382812c-1.769531-5.753906-4.078125-11.324219-6.894531-16.640625l12.390625-18.585938c2.113281-3.171875 1.695312-7.390625-1-10.085937l-22.632813-22.632813c-2.695312-2.691406-6.914062-3.113281-10.085937-1l-18.617188 12.367188c-5.316406-2.816407-10.886719-5.125-16.640625-6.894531l-4.382812-21.90625c-.761719-3.722657-4.039063-6.398438-7.839844-6.398438h-32c-3.800781 0-7.078125 2.675781-7.839844 6.398438l-4.382812 21.898437c-5.753906 1.769531-11.324219 4.078125-16.640625 6.894531l-18.585938-12.390625c-3.171875-2.113281-7.390625-1.695312-10.085937 1l-22.632813 22.632813c-2.691406 2.695312-3.113281 6.914062-1 10.085937l12.367188 18.617188c-2.816407 5.316406-5.125 10.886719-6.894531 16.640625l-21.90625 4.382812c-3.722657.761719-6.398438 4.039063-6.398438 7.839844v32c0 3.800781 2.675781 7.078125 6.398438 7.839844l21.898437 4.382812c1.769531 5.753906 4.078125 11.324219 6.894531 16.640625l-12.390625 18.585938c-2.113281 3.171875-1.695312 7.390625 1 10.085937l22.632813 22.632813c2.695312 2.691406 6.914062 3.113281 10.085937 1l18.617188-12.367188c5.316406 2.816407 10.886719 5.125 16.640625 6.894531l4.382812 21.90625c.761719 3.722657 4.039063 6.398438 7.839844 6.398438h32c3.800781 0 7.078125-2.675781 7.839844-6.398438l4.382812-21.898437c5.753906-1.769531 11.324219-4.078125 16.640625-6.894531l18.585938 12.390625c3.171875 2.113281 7.390625 1.695312 10.085937-1l22.632813-22.632813c2.691406-2.695312 3.113281-6.914062 1-10.085937l-12.367188-18.617188c2.816407-5.316406 5.125-10.886719 6.894531-16.640625l21.90625-4.382812c3.722657-.761719 6.398438-4.039063 6.398438-7.839844v-32c0-3.800781-2.675781-7.078125-6.398438-7.839844zm-9.601562 33.28125-20.289062 4.0625c-3.03125.605469-5.441407 2.90625-6.191407 5.902344-1.898437 7.636719-4.925781 14.941406-8.984375 21.683594-1.59375 2.648437-1.515625 5.984375.199219 8.558594l11.480469 17.214843-13.351563 13.351563-17.214843-11.480469c-2.574219-1.714844-5.910157-1.792969-8.558594-.199219-6.742188 4.058594-14.046875 7.085938-21.683594 8.984375-2.996094.75-5.296875 3.160157-5.902344 6.191407l-4.0625 20.289062h-18.882812l-4.0625-20.289062c-.605469-3.03125-2.90625-5.441407-5.902344-6.191407-7.632812-1.902343-14.941406-4.929687-21.683594-8.984375-2.648437-1.59375-5.984375-1.515625-8.558594.199219l-17.214843 11.480469-13.351563-13.351563 11.480469-17.214843c1.714844-2.574219 1.792969-5.910157.199219-8.558594-4.058594-6.742188-7.085938-14.046875-8.984375-21.683594-.75-2.996094-3.160157-5.296875-6.191407-5.902344l-20.289062-4.0625v-18.882812l20.289062-4.0625c3.03125-.605469 5.441407-2.90625 6.191407-5.902344 1.898437-7.636719 4.925781-14.941406 8.984375-21.683594 1.59375-2.648437 1.515625-5.984375-.199219-8.558594l-11.480469-17.214843 13.351563-13.351563 17.214843 11.480469c2.574219 1.714844 5.910157 1.792969 8.558594.199219 6.742188-4.054688 14.050782-7.082032 21.683594-8.984375 2.996094-.75 5.296875-3.160157 5.902344-6.191407l4.0625-20.289062h18.882812l4.0625 20.289062c.605469 3.03125 2.90625 5.441407 5.902344 6.191407 7.636719 1.898437 14.941406 4.925781 21.683594 8.984375 2.648437 1.59375 5.984375 1.515625 8.558594-.199219l17.214843-11.480469 13.351563 13.351563-11.480469 17.214843c-1.714844 2.574219-1.792969 5.910157-.199219 8.558594 4.058594 6.742188 7.085938 14.046875 8.984375 21.683594.75 2.996094 3.160157 5.296875 6.191407 5.902344l20.289062 4.0625zm0 0"/><path d="m344 112c-39.765625 0-72 32.234375-72 72s32.234375 72 72 72 72-32.234375 72-72c-.046875-39.746094-32.253906-71.953125-72-72zm0 128c-30.929688 0-56-25.070312-56-56s25.070312-56 56-56 56 25.070312 56 56c-.035156 30.914062-25.085938 55.964844-56 56zm0 0"/><path d="m344 160c4.417969 0 8 3.582031 8 8h16c-.042969-10.132812-6.445312-19.148438-16-22.527344v-9.472656h-16v9.472656c-11.011719 3.878906-17.621094 15.132813-15.644531 26.640625 1.980469 11.507813 11.96875 19.910157 23.644531 19.886719 4.417969 0 8 3.582031 8 8s-3.582031 8-8 8-8-3.582031-8-8h-16c.042969 10.132812 6.445312 19.148438 16 22.527344v9.472656h16v-9.472656c11.011719-3.878906 17.621094-15.132813 15.644531-26.640625-1.980469-11.507813-11.96875-19.910157-23.644531-19.886719-4.417969 0-8-3.582031-8-8s3.582031-8 8-8zm0 0"/><path d="m198.742188 334.601562-46.742188-12.714843v-12c15.027344-10.445313 23.988281-27.585938 24-45.886719v-8c4.417969 0 8-3.582031 8-8v-24c0-35.347656-28.652344-64-64-64s-64 28.652344-64 64v24c0 4.417969 3.582031 8 8 8v8c.011719 18.300781 8.972656 35.441406 24 45.886719v12l-46.769531 12.722656c-24.300781 6.730469-41.152344 28.8125-41.230469 54.03125v83.359375c0 4.417969 3.582031 8 8 8h224c4.417969 0 8-3.582031 8-8v-83.359375c-.082031-25.226563-16.941406-47.316406-41.257812-54.039063zm-126.742188-110.601562c0-26.507812 21.492188-48 48-48s48 21.492188 48 48v16h-5.265625c-7.339844 0-13.738281-4.996094-15.519531-12.121094l-3.453125-13.824218c-.75-2.988282-3.15625-5.285157-6.175781-5.894532-.523438-.109375-1.054688-.164062-1.585938-.160156-2.519531 0-4.890625 1.1875-6.398438 3.199219l-4.800781 6.402343c-10.605469 14.066407-27.183593 22.355469-44.800781 22.398438h-8zm8 40v-8c19.726562-.042969 38.578125-8.132812 52.199219-22.398438 3.902343 12.351563 14.890625 21.117188 27.800781 22.175782v8.222656c0 22.089844-17.910156 40-40 40s-40-17.910156-40-40zm40 56c5.421875-.015625 10.8125-.824219 16-2.398438v10.398438c.027344 2.292969 1.042969 4.460938 2.792969 5.945312l-18.792969 15.65625-18.792969-15.648437c1.75-1.484375 2.769531-3.65625 2.792969-5.953125v-10.398438c5.1875 1.574219 10.578125 2.382813 16 2.398438zm104 144h-24v-72h-16v72h-128v-72h-16v72h-24v-75.359375c.058594-18.015625 12.101562-33.792969 29.464844-38.601563l37.734375-10.269531 31.679687 26.398438c2.96875 2.46875 7.273438 2.46875 10.242188 0l31.679687-26.398438 37.710938 10.261719c17.371093 4.804688 29.421875 20.585938 29.488281 38.609375zm0 0"/><path d="m272 352h16v16h-16zm0 0"/><path d="m304 352h16v16h-16zm0 0"/><path d="m336 352h16v16h-16zm0 0"/><path d="m272 400h104c4.417969 0 8-3.582031 8-8v-72h-16v64h-96zm0 0"/><path d="m144 96h16v16h-16zm0 0"/><path d="m176 96h16v16h-16zm0 0"/><path d="m208 96h16v16h-16zm0 0"/></symbol>
  <symbol id="error" viewBox="0 0 512 512" ><g><g><path d="M500.974,365.071L327.473,64.556C312.758,39.075,285.371,23.245,256,23.245c-29.371,0-56.758,15.83-71.473,41.313L11.026,365.071C3.812,377.565,0,391.806,0,406.255c0,45.49,37.01,82.5,82.5,82.5h347c45.49,0,82.5-37.01,82.5-82.5C512,391.806,508.187,377.565,500.974,365.071z M429.5,473.755h-347c-37.22,0-67.5-30.28-67.5-67.5c0-11.82,3.118-23.468,9.017-33.685L197.518,72.057C209.561,51.201,231.97,38.245,256,38.245c24.03,0,46.439,12.956,58.482,33.813l173.501,300.514c5.898,10.217,9.017,21.864,9.017,33.685C497,443.475,466.72,473.755,429.5,473.755z"/></g></g><g><g><path d="M466.333,385.069l-173.5-300.511C285.241,71.411,271.128,63.244,256,63.244s-29.241,8.166-36.832,21.313l-79.251,137.267c-2.071,3.587-0.842,8.174,2.745,10.245c3.588,2.069,8.174,0.841,10.245-2.745l79.251-137.267c4.92-8.52,14.056-13.813,23.842-13.813s18.923,5.294,23.843,13.814l173.5,300.512c2.427,4.203,3.657,8.808,3.657,13.686c0,15.163-12.337,27.5-27.5,27.5h-347c-15.163,0-27.5-12.337-27.5-27.5c0-4.878,1.23-9.482,3.657-13.686l79.25-137.267c2.071-3.587,0.842-8.174-2.745-10.245c-3.59-2.071-8.175-0.843-10.245,2.745L45.667,385.07C41.906,391.583,40,398.71,40,406.255c0,23.435,19.065,42.5,42.5,42.5h347c23.435,0,42.5-19.065,42.5-42.5C472,398.71,470.094,391.582,466.333,385.069z"/></g></g><g><g><path d="M256,128.755c-17.921,0-32.5,14.579-32.5,32.5v135c0,17.921,14.579,32.5,32.5,32.5s32.5-14.579,32.5-32.5v-135C288.5,143.334,273.921,128.755,256,128.755z M273.5,296.255c0,9.649-7.851,17.5-17.5,17.5s-17.5-7.851-17.5-17.5v-135c0-9.649,7.851-17.5,17.5-17.5s17.5,7.851,17.5,17.5V296.255z"/></g></g><g><g><path d="M256,343.755c-17.921,0-32.5,14.579-32.5,32.5c0,17.921,14.579,32.5,32.5,32.5s32.5-14.579,32.5-32.5C288.5,358.334,273.921,343.755,256,343.755z M256,393.755c-9.649,0-17.5-7.851-17.5-17.5s7.851-17.5,17.5-17.5s17.5,7.851,17.5,17.5S265.649,393.755,256,393.755z"/></g></g> </symbol>
  <symbol id="home" viewBox="0 0 512 512" ><g><g><path d="M417.416,275.974H274.253c-4.2,0-7.604,3.405-7.604,7.604v125.719c0,4.199,3.404,7.604,7.604,7.604h143.163c4.2,0,7.604-3.405,7.604-7.604V283.578C425.02,279.378,421.616,275.974,417.416,275.974z M409.812,401.692H281.857v-72.309h127.955V401.692z M409.812,314.176H281.857v-22.994h127.955V314.176z"/></g></g><g><g><path d="M504.396,432.792h-50.183v-168.82l13.553,12.94c1.464,1.398,3.356,2.104,5.252,2.104c1.734,0,3.47-0.59,4.888-1.78l30.179-25.333c1.018-0.855,1.866-1.918,2.348-3.156c1.165-2.986,0.36-6.231-1.826-8.315l-52.366-49.871v-71.977c0-4.199-3.405-7.604-7.604-7.604c-4.199,0-7.604,3.405-7.604,7.604v57.494l-80.095-76.279V62.049h80.095v21.048c0,4.199,3.405,7.604,7.604,7.604c4.199,0,7.604-3.405,7.604-7.604V54.445c0-4.199-3.405-7.604-7.604-7.604h-95.303c-4.199,0-7.604,3.405-7.604,7.604v30.87l-69.424-66.116L261.175,5.143c-2.919-2.711-7.434-2.71-10.35,0l-15.2,14.121L3.393,240.431c-2.186,2.083-2.991,5.328-1.826,8.315c0.483,1.238,1.33,2.301,2.348,3.156l30.179,25.334c2.969,2.492,7.336,2.352,10.14-0.324l13.56-12.947v49.771c0,4.199,3.405,7.604,7.604,7.604s7.604-3.405,7.604-7.604v-64.291L256,74.73l183.005,174.722v183.341H274.253c-4.199,0-7.604,3.405-7.604,7.604v53.284h-21.291V283.579c0-4.199-3.405-7.604-7.604-7.604H112.035c-4.199,0-7.604,3.405-7.604,7.604v210.102h-8.545v-53.284c0-4.199-3.405-7.604-7.604-7.604H73.001v-83.57c0-4.199-3.405-7.604-7.604-7.604s-7.604,3.405-7.604,7.604v83.57H7.604c-4.199,0-7.604,3.405-7.604,7.604v60.889c0,4.199,3.405,7.604,7.604,7.604h80.678c0.007,0,0.013-0.001,0.019-0.001h23.732h125.719h36.48c0.006,0,0.013,0.001,0.019,0.001h230.145c4.199,0,7.604-3.405,7.604-7.604v-60.889C512,436.196,508.595,432.792,504.396,432.792z M80.678,493.68H65.397v0.001H15.208V448h65.47V493.68z M230.15,493.68H119.639V291.182H230.15V493.68z M261.251,58.717c-1.47-1.402-3.36-2.104-5.251-2.104s-3.781,0.702-5.251,2.104L38.656,261.21l-18.618-15.63L246.044,30.341l9.956-9.25l9.886,9.185L491.961,245.58l-18.619,15.63L261.251,58.717z M496.792,493.681h-50.183v-0.001H281.857V448h214.936V493.681z"/></g></g><g><g><path d="M212.981,384.129h-18.25c-4.2,0-7.604,3.405-7.604,7.604c0,4.199,3.404,7.604,7.604,7.604h18.25c4.2,0,7.604-3.405,7.604-7.604C220.585,387.534,217.181,384.129,212.981,384.129z"/></g></g><g><g><path d="M256.003,143.856c-23.479,0-42.58,19.101-42.58,42.581c0,23.479,19.101,42.58,42.58,42.58s42.58-19.101,42.58-42.58C298.583,162.958,279.482,143.856,256.003,143.856z M256.003,213.809c-15.093,0-27.372-12.279-27.372-27.372s12.279-27.373,27.372-27.373s27.372,12.279,27.372,27.373C283.375,201.53,271.096,213.809,256.003,213.809z"/></g></g></symbol>
  <symbol id="journal" viewBox="0 0 512 512"><g><path d="m471.369 115.987h-149.093c-13.663 0-25.763 6.785-33.132 17.155-7.37-10.37-19.47-17.155-33.132-17.155h-82.563l-85.507-85.507c-.001-.001-.002-.002-.003-.003s-.002-.002-.004-.003l-23.424-23.424c-4.545-4.546-10.589-7.05-17.017-7.05s-12.472 2.504-17.017 7.049l-23.427 23.428c-4.546 4.545-7.05 10.588-7.05 17.016 0 6.429 2.504 12.473 7.049 17.018l23.423 23.424c.001.001.002.003.004.004.001.001.003.002.004.004l44.101 44.101c-5.327 7.015-8.292 15.633-8.292 24.575v134.095c0 4.143 3.358 7.5 7.5 7.5s7.5-3.357 7.5-7.5v-134.096c0-4.942 1.437-9.728 4.052-13.816l73.694 73.695c.178.178.364.345.557.503 1.143.931 2.55 1.509 4.014 1.657.243.024.488.036.732.036h43.748l9.518 9.518c1.464 1.464 3.384 2.196 5.303 2.196.178 0 16.54-.025 16.54-.025 4.142 0 7.5-3.357 7.5-7.5s-3.358-7.5-7.5-7.5h-13.458l-7.295-7.295v-43.746c0-.246-.012-.491-.036-.736-.148-1.464-.725-2.873-1.658-4.014-.158-.193-.325-.378-.503-.556l-28.047-28.047h67.563c14.133 0 25.631 11.498 25.632 25.63v283.254c-6.997-5.705-15.921-9.134-25.632-9.134h-174.724v-110.025c0-4.143-3.358-7.5-7.5-7.5s-7.5 3.357-7.5 7.5v150.655c0 22.404 18.228 40.632 40.632 40.632h292.324c4.143 0 7.5-3.357 7.5-7.5s-3.357-7.5-7.5-7.5h-102.6l.001-18.132h141.592c4.143 0 7.5-3.357 7.5-7.5s-3.357-7.5-7.5-7.5h-140.47c3.215-10.485 12.985-18.131 24.509-18.131h174.723v25.631c0 14.134-11.498 25.632-25.631 25.632h-42.124c-4.143 0-7.5 3.357-7.5 7.5s3.357 7.5 7.5 7.5h42.124c22.404 0 40.631-18.227 40.631-40.632v-314.75c0-22.404-18.227-40.631-40.631-40.631zm-453.714-62.084c-1.712-1.712-2.655-3.988-2.655-6.41 0-2.421.943-4.697 2.656-6.409l23.428-23.429c1.711-1.712 3.988-2.655 6.41-2.655 2.421 0 4.698.943 6.411 2.656l18.123 18.124-18.119 18.119c-.002.002-.003.003-.005.005s-.003.003-.005.005l-18.119 18.119zm146.683 146.684-117.951-117.952 12.821-12.821 117.951 117.952zm39.355 3.106h-21.248l21.248-21.248zm-3.106-39.355-12.821 12.821-117.951-117.952 12.821-12.82 82.393 82.392.021.021zm81.058 332.662h-174.724c-14.133 0-25.632-11.498-25.632-25.632v-25.631h174.724c11.524 0 21.294 7.646 24.509 18.131h-140.47c-4.142 0-7.5 3.357-7.5 7.5s3.358 7.5 7.5 7.5h141.592v18.132zm215.355-66.263h-174.724c-9.711 0-18.634 3.429-25.632 9.134l.001-283.254c0-14.133 11.498-25.63 25.631-25.63h149.093c14.133 0 25.631 11.498 25.631 25.631z"/><path d="m371.974 180.685h49.697c4.143 0 7.5-3.357 7.5-7.5s-3.357-7.5-7.5-7.5h-49.697c-4.143 0-7.5 3.357-7.5 7.5 0 4.142 3.357 7.5 7.5 7.5z"/><path d="m454.803 215.382h-115.961c-4.143 0-7.5 3.357-7.5 7.5s3.357 7.5 7.5 7.5h115.961c4.143 0 7.5-3.357 7.5-7.5s-3.358-7.5-7.5-7.5z"/><path d="m454.803 248.513h-115.961c-4.143 0-7.5 3.357-7.5 7.5s3.357 7.5 7.5 7.5h115.961c4.143 0 7.5-3.357 7.5-7.5s-3.358-7.5-7.5-7.5z"/><path d="m454.803 281.645h-115.961c-4.143 0-7.5 3.358-7.5 7.5 0 4.143 3.357 7.5 7.5 7.5h115.961c4.143 0 7.5-3.357 7.5-7.5s-3.358-7.5-7.5-7.5z"/><path d="m454.803 314.776h-115.961c-4.143 0-7.5 3.357-7.5 7.5s3.357 7.5 7.5 7.5h115.961c4.143 0 7.5-3.357 7.5-7.5 0-4.142-3.358-7.5-7.5-7.5z"/><path d="m454.803 347.908h-99.395c-4.143 0-7.5 3.357-7.5 7.5s3.357 7.5 7.5 7.5h99.395c4.143 0 7.5-3.357 7.5-7.5s-3.358-7.5-7.5-7.5z"/></g></symbol>
  <symbol id="reports" viewBox="0 0 512 512"><g><path d="m453.066 375.059c4.151 0 7.515-3.365 7.515-7.515v-345c-.001-12.431-10.114-22.544-22.545-22.544h-337.078c-12.431 0-22.544 10.113-22.544 22.544v39.327c-15.364 3.009-26.994 16.57-26.994 32.801 0 16.232 11.631 29.793 26.994 32.802v15.06c-15.364 3.009-26.994 16.57-26.994 32.801 0 16.232 11.631 29.793 26.994 32.802v15.06c-15.364 3.011-26.994 16.572-26.994 32.803 0 16.232 11.631 29.793 26.994 32.802v15.06c-15.364 3.009-26.994 16.57-26.994 32.802 0 16.231 11.631 29.792 26.994 32.801v15.06c-15.364 3.009-26.994 16.57-26.994 32.802 0 16.231 11.631 29.792 26.994 32.802v39.327c0 12.431 10.113 22.544 22.544 22.544h337.078c12.431 0 22.544-10.113 22.544-22.544v-91.853c0-4.15-3.364-7.515-7.515-7.515s-7.515 3.364-7.515 7.515v91.853c0 4.144-3.371 7.515-7.515 7.515h-337.077c-4.144 0-7.515-3.371-7.515-7.515v-88.387c5.826 3.092 9.807 9.216 9.807 16.259 0 4.15 3.364 7.515 7.515 7.515s7.515-3.365 7.515-7.515c0-15.463-10.554-28.503-24.837-32.305v-64.618c5.826 3.092 9.807 9.216 9.807 16.259 0 4.15 3.364 7.515 7.515 7.515s7.515-3.365 7.515-7.515c0-15.463-10.554-28.503-24.837-32.305v-64.617c5.826 3.092 9.807 9.216 9.807 16.258 0 4.15 3.364 7.515 7.515 7.515s7.515-3.365 7.515-7.515c0-15.463-10.554-28.502-24.837-32.305v-64.618c5.826 3.092 9.807 9.216 9.807 16.258 0 4.15 3.364 7.515 7.515 7.515s7.515-3.365 7.515-7.515c0-15.463-10.554-28.502-24.837-32.305v-64.616c5.826 3.092 9.807 9.216 9.807 16.258 0 4.15 3.364 7.515 7.515 7.515s7.515-3.365 7.515-7.515c0-15.463-10.554-28.502-24.837-32.305v-39.823c0-4.144 3.371-7.515 7.515-7.515h337.078c4.144 0 7.515 3.371 7.515 7.515v345c0 4.15 3.364 7.515 7.515 7.515zm-386.617-280.387c0-7.879 4.988-14.598 11.965-17.216v34.432c-6.977-2.617-11.965-9.336-11.965-17.216zm0 80.664c0-7.879 4.988-14.598 11.965-17.216v34.432c-6.977-2.617-11.965-9.336-11.965-17.216zm0 80.664c0-7.879 4.988-14.598 11.965-17.216v34.432c-6.977-2.617-11.965-9.336-11.965-17.216zm0 80.664c0-7.88 4.988-14.599 11.965-17.216v34.432c-6.977-2.618-11.965-9.337-11.965-17.216zm0 80.664c0-7.88 4.988-14.599 11.965-17.216v34.432c-6.977-2.618-11.965-9.337-11.965-17.216z"/><path d="m298.924 56.523c-4.151 0-7.515 3.364-7.515 7.515v32.426c0 4.15 3.364 7.515 7.515 7.515s7.515-3.365 7.515-7.515v-24.592c42.205 3.613 75.949 37.355 79.562 79.561h-79.562v-24.911c0-4.15-3.364-7.515-7.515-7.515s-7.515 3.364-7.515 7.515v32.426c0 4.15 3.364 7.515 7.515 7.515h94.911c4.151 0 7.515-3.364 7.515-7.515-.001-56.478-45.949-102.425-102.426-102.425z"/><path d="m267.871 93.887c-52.35 0-94.94 42.59-94.94 94.94 0 4.15 3.364 7.515 7.515 7.515s7.515-3.365 7.515-7.515c0-41.53 31.843-75.762 72.396-79.561v79.561c.011.906.175 1.807.486 2.658l28.142 74.4c-6.73 1.846-13.805 2.852-21.114 2.852-33.614 0-63.841-21.24-75.216-52.852-1.405-3.905-5.708-5.93-9.615-4.527-3.905 1.405-5.932 5.71-4.526 9.615 13.514 37.559 49.424 62.793 89.357 62.793 11.672 0 22.856-2.122 33.193-5.992.134-.042.269-.081.402-.131s.257-.112.385-.168c35.615-13.698 60.96-48.266 60.96-88.648 0-4.15-3.364-7.515-7.515-7.515h-79.911v-79.911c0-4.15-3.363-7.514-7.514-7.514zm35.166 166.67-24.29-64.216h68.684c-2.645 28.236-20.051 52.234-44.394 64.216z"/><path d="m393.835 329.149h-223.89c-4.151 0-7.515 3.365-7.515 7.515s3.364 7.515 7.515 7.515h223.89c4.151 0 7.515-3.365 7.515-7.515s-3.365-7.515-7.515-7.515z"/><path d="m401.349 382.573c0-4.15-3.364-7.515-7.515-7.515h-223.89c-4.151 0-7.515 3.365-7.515 7.515s3.364 7.515 7.515 7.515h223.89c4.151 0 7.515-3.364 7.515-7.515z"/><path d="m169.944 420.968c-4.151 0-7.515 3.365-7.515 7.515s3.364 7.515 7.515 7.515h159.411c4.151 0 7.515-3.365 7.515-7.515s-3.364-7.515-7.515-7.515z"/></g></symbol>
  <symbol id="directory"  viewBox="0 0 512 512"><g><g><path d="M428.29,59.928h-92.703V29.135c0-4.271-3.461-7.731-7.731-7.731h-38.011V7.731c0-4.271-3.461-7.731-7.731-7.731h-63.414c-4.27,0-7.731,3.46-7.731,7.731v13.673h-32.247c-4.27,0-7.731,3.46-7.731,7.731v30.793H83.71c-4.27,0-7.731,3.46-7.731,7.731v32.105c0,4.271,3.461,7.731,7.731,7.731s7.731-3.46,7.731-7.731V75.39h79.549v24.371c0,4.271,3.461,7.731,7.731,7.731h149.134c4.27,0,7.731-3.46,7.731-7.731V75.39h84.972v421.149H91.441V134.61c0-4.271-3.461-7.731-7.731-7.731s-7.731,3.46-7.731,7.731v369.659c0,4.271,3.461,7.731,7.731,7.731h344.58c4.27,0,7.731-3.46,7.731-7.731V67.659C436.021,63.388,432.559,59.928,428.29,59.928z M226.431,15.462h47.952v5.942h-47.952V15.462z M320.125,92.03H186.454V36.866H218.7h63.414h38.011V92.03z"/></g></g><g><g><path d="M375.747,167.931H209.041c-4.27,0-7.731,3.46-7.731,7.731s3.461,7.731,7.731,7.731h166.706c4.27,0,7.731-3.46,7.731-7.731S380.016,167.931,375.747,167.931z"/></g></g><g><g><path d="M375.747,252.758H209.041c-4.27,0-7.731,3.46-7.731,7.731s3.461,7.731,7.731,7.731h166.706c4.27,0,7.731-3.46,7.731-7.731S380.016,252.758,375.747,252.758z"/></g></g><g><g><path d="M375.747,337.584H209.041c-4.27,0-7.731,3.46-7.731,7.731s3.461,7.731,7.731,7.731h166.706c4.27,0,7.731-3.46,7.731-7.731S380.016,337.584,375.747,337.584z"/></g></g><g><g><path d="M375.747,422.411H209.041c-4.27,0-7.731,3.46-7.731,7.731s3.461,7.731,7.731,7.731h166.706c4.27,0,7.731-3.46,7.731-7.731S380.016,422.411,375.747,422.411z"/></g></g><g><g><path d="M176.962,147.499H134.23c-4.27,0-7.731,3.46-7.731,7.731v1.07v41.661v1.07c0,4.271,3.461,7.731,7.731,7.731h42.732c4.27,0,7.731-3.46,7.731-7.731v-1.07V156.3v-1.07C184.693,150.959,181.232,147.499,176.962,147.499z M169.231,190.23h-27.27v-26.199h27.27V190.23z"/></g></g><g><g><path d="M176.962,234.179H134.23c-4.27,0-7.731,3.46-7.731,7.731v42.731c0,4.271,3.461,7.731,7.731,7.731h42.732c4.27,0,7.731-3.46,7.731-7.731V241.91C184.693,237.64,181.232,234.179,176.962,234.179z M169.231,276.91h-27.27v-27.269h27.27V276.91z"/></g></g><g><g><path d="M176.962,318.718H134.23c-4.27,0-7.731,3.46-7.731,7.731v42.732c0,4.271,3.461,7.731,7.731,7.731h42.732c4.27,0,7.731-3.46,7.731-7.731v-42.732C184.693,322.178,181.232,318.718,176.962,318.718z M169.231,361.45h-27.27v-27.27h27.27V361.45z"/></g></g><g><g><path d="M176.962,404.328H134.23c-4.27,0-7.731,3.46-7.731,7.731v42.731c0,4.271,3.461,7.731,7.731,7.731h42.732c4.27,0,7.731-3.46,7.731-7.731v-42.731C184.693,407.789,181.232,404.328,176.962,404.328z M169.231,447.059h-27.27V419.79h27.27V447.059z"/></g></g></symbol>
  <symbol id="applications" viewBox="0 0 512 512"><g><g><path d="m404.288 274.636h-260.691c-4.142 0-7.499 3.358-7.499 7.499s3.358 7.499 7.499 7.499h260.692c4.142 0 7.499-3.358 7.499-7.499s-3.358-7.499-7.5-7.499z"/><path d="m404.288 322.961h-260.691c-4.142 0-7.499 3.358-7.499 7.499s3.358 7.499 7.499 7.499h260.692c4.142 0 7.499-3.358 7.499-7.499s-3.358-7.499-7.5-7.499z"/><path d="m404.288 371.286h-260.691c-4.142 0-7.499 3.358-7.499 7.499s3.358 7.499 7.499 7.499h260.692c4.142 0 7.499-3.358 7.499-7.499s-3.358-7.499-7.5-7.499z"/><path d="m404.288 419.611h-260.691c-4.142 0-7.499 3.358-7.499 7.499s3.358 7.499 7.499 7.499h260.692c4.142 0 7.499-3.358 7.499-7.499s-3.358-7.499-7.5-7.499z"/><path d="m404.288 175.702h-95.793c-4.142 0-7.499 3.358-7.499 7.499s3.358 7.499 7.499 7.499h95.793c4.142 0 7.499-3.358 7.499-7.499s-3.357-7.499-7.499-7.499z"/><path d="m404.288 136.06h-95.793c-4.142 0-7.499 3.358-7.499 7.499s3.358 7.499 7.499 7.499h95.793c4.142 0 7.499-3.358 7.499-7.499s-3.357-7.499-7.499-7.499z"/><path d="m456.229 417.08c4.142 0 7.499-3.358 7.499-7.499v-336.333c0-16.262-13.23-29.492-29.492-29.492h-14.264v-14.264c.001-16.262-13.229-29.492-29.491-29.492h-312.717c-16.262 0-29.492 13.23-29.492 29.492v409.26c0 16.262 13.23 29.492 29.492 29.492h14.263v14.263c0 16.262 13.23 29.492 29.492 29.492h312.716c16.262 0 29.492-13.23 29.492-29.492v-37.867c0-4.142-3.358-7.499-7.499-7.499s-7.499 3.358-7.499 7.499v37.868c0 7.992-6.502 14.493-14.493 14.493h-312.716c-7.992 0-14.493-6.501-14.493-14.493v-409.26c0-7.992 6.502-14.493 14.493-14.493h312.716c7.992 0 14.493 6.502 14.493 14.493v336.333c0 4.141 3.358 7.499 7.5 7.499zm-364.202-343.832v379.998h-14.263c-7.992 0-14.493-6.502-14.493-14.493v-409.261c0-7.992 6.502-14.493 14.493-14.493h312.717c7.992 0 14.493 6.502 14.493 14.493v14.263h-283.454c-16.262.001-29.493 13.231-29.493 29.493z"/><path d="m142.996 148.151c-4.142 0-7.499 3.358-7.499 7.499v56.637c0 11.761 8.793 21.561 20.466 22.826 2.829.309 83.658.011 83.778.01.027-.003.055-.006.082-.009 11.679-1.26 20.477-11.062 20.477-22.827v-97.813c0-12.661-10.3-22.961-22.961-22.961h-78.882c-12.661 0-22.961 10.3-22.961 22.961v5.871c0 4.142 3.358 7.499 7.499 7.499s7.499-3.358 7.499-7.499v-5.871c0-4.39 3.572-7.962 7.962-7.962h78.882c4.39 0 7.962 3.571 7.962 7.962v76.779c-5.73-6.069-12.601-11.009-20.28-14.509 3.219-5.071 5.004-11.012 5.004-17.208 0-17.714-14.412-32.126-32.127-32.126-17.714 0-32.126 14.412-32.126 32.126 0 6.197 1.785 12.137 5.004 17.208-7.68 3.5-14.551 8.44-20.281 14.51v-35.604c.001-4.142-3.356-7.499-7.498-7.499zm54.902-5.743c9.445 0 17.128 7.683 17.128 17.128 0 5.721-2.842 11.043-7.601 14.237-2.819 1.891-6.113 2.891-9.527 2.891s-6.708-.999-9.526-2.891c-4.76-3.194-7.601-8.516-7.601-14.237 0-9.445 7.683-17.128 17.127-17.128zm-14.739 45.655c4.538 2.35 9.563 3.599 14.739 3.599 5.175 0 10.2-1.249 14.739-3.599 14.197 4.34 25.686 14.707 31.484 28.409-1.251 2.034-3.396 3.464-5.93 3.731-.484.03-79.274.11-80.414.016l-.164-.015c-.004 0-.008-.001-.012-.001-2.533-.268-4.676-1.698-5.927-3.731 5.799-13.702 17.288-24.069 31.485-28.409z"/></g></g></symbol>
  <symbol id="burgerMenuMin" viewBox="0 0 9 17"><rect x="0.48" y="0.5" width="7" height="1"></rect><rect x="0.48" y="7.5" width="7" height="1"></rect><rect x="0.48" y="15.5" width="7" height="1"></rect></symbol>
  <symbol id="burgerMenuBig" viewBox="0 0 18 17"><rect x="1.56" y="0.5" width="16" height="1"></rect><rect x="1.56" y="7.5" width="16" height="1"></rect><rect x="1.56" y="15.5" width="16" height="1"></rect></symbol>
  <symbol id="calculator" viewBox="0 0 512 512"><g><g><g><circle cx="138" cy="324" r="20"/><circle cx="138" cy="424" r="20"/><path d="M100,394h76c11.046,0,20-8.954,20-20c0-11.046-8.954-20-20-20h-76c-11.046,0-20,8.954-20,20C80,385.046,88.954,394,100,394z"/><path d="M100,158h18v18c0,11.046,8.954,20,20,20s20-8.954,20-20v-18h18c11.046,0,20-8.954,20-20s-8.954-20-20-20h-18v-18c0-11.046-8.954-20-20-20s-20,8.954-20,20v18h-18c-11.046,0-20,8.954-20,20S88.954,158,100,158z"/><path d="M492,352c11.046,0,20-8.954,20-20V80c0-44.112-35.888-80-80-80H80C35.888,0,0,35.888,0,80v352c0,44.112,35.888,80,80,80h352c44.112,0,80-35.888,80-80c0-11.046-8.954-20-20-20c-11.046,0-20,8.954-20,20c0,22.056-17.944,40-40,40H276V277h196v55C472,343.046,480.954,352,492,352z M236,472H80c-22.056,0-40-17.944-40-40V277h196V472z M236,237H40V80c0-22.056,17.944-40,40-40h156V237z M276,237V40h156c22.056,0,40,17.944,40,40v157H276z"/><path d="M417.602,330.516c-7.81-7.809-20.473-7.809-28.284,0l-15.358,15.358l-15.358-15.358c-7.81-7.809-20.473-7.809-28.284,0c-7.811,7.81-7.811,20.474,0,28.285l15.357,15.357l-15.357,15.357c-7.811,7.81-7.811,20.474,0,28.285c3.905,3.904,9.023,5.857,14.142,5.857c5.119,0,10.237-1.953,14.142-5.857l15.358-15.358l15.358,15.358c3.905,3.904,9.023,5.857,14.142,5.857c5.119,0,10.237-1.953,14.142-5.857c7.811-7.81,7.811-20.474,0-28.285l-15.357-15.357l15.357-15.357C425.413,350.99,425.413,338.326,417.602,330.516z"/><path d="M412,118h-76c-11.046,0-20,8.954-20,20s8.954,20,20,20h76c11.046,0,20-8.954,20-20S423.046,118,412,118z"/></g></g></g></symbol>
  <symbol id="address" viewBox="0 0 512.00069 512"><path d="m316 260c-5.519531 0-10 4.480469-10 10s4.480469 10 10 10 10-4.480469 10-10-4.480469-10-10-10zm0 0"/><path d="m102.167969 369.785156-100 126c-2.386719 3.003906-2.839844 7.109375-1.171875 10.5625 1.667968 3.457032 5.167968 5.652344 9.003906 5.652344h492c3.835938 0 7.335938-2.195312 9.003906-5.652344 1.671875-3.453125 1.214844-7.558594-1.171875-10.5625l-100-126c-1.894531-2.390625-4.78125-3.785156-7.832031-3.785156h-87.597656l74.785156-117.296875c17.542969-26.300781 26.8125-56.972656 26.8125-88.703125 0-88.222656-71.773438-160-160-160s-160 71.777344-160 160c0 31.730469 9.269531 62.398438 26.8125 88.703125l74.785156 117.296875h-87.597656c-3.050781 0-5.933594 1.394531-7.832031 3.785156zm-37.335938 79.214844h60.464844l-34.125 43h-60.46875zm145.519531-63 27.414063 43h-71.0625l34.128906-43zm91.300782 0h9.519531l34.125 43h-71.058594zm59.519531 63 34.125 43h-278.59375l34.128906-43zm59.660156 43-34.128906-43h60.46875l34.125 43zm10.464844-63h-60.464844l-34.128906-43h60.46875zm-291.789063-191.3125c-15.378906-23.023438-23.507812-49.886719-23.507812-77.6875 0-77.195312 62.804688-140 140-140s140 62.804688 140 140c0 27.800781-8.128906 54.664062-23.503906 77.6875-.042969.058594-.078125.117188-.117188.175781-6.566406 10.300781-111.320312 174.605469-116.378906 182.535157-12.722656-19.957032-103.421875-162.214844-116.378906-182.535157-.035156-.058593-.074219-.117187-.113282-.175781zm35.789063 148.3125-34.125 43h-60.46875l34.128906-43zm0 0"/><path d="m256 260c54.898438 0 100-44.457031 100-100 0-55.140625-44.859375-100-100-100s-100 44.859375-100 100c0 55.558594 45.117188 100 100 100zm0-180c44.113281 0 80 35.886719 80 80 0 44.523438-36.175781 80-80 80-43.835938 0-80-35.476562-80-80 0-44.113281 35.886719-80 80-80zm0 0"/><path d="m298.121094 294.125c-4.726563-2.851562-10.875-1.328125-13.726563 3.402344l-36.960937 61.320312c-2.851563 4.730469-1.328125 10.875 3.402344 13.726563 4.75 2.863281 10.886718 1.308593 13.726562-3.402344l36.960938-61.320313c2.851562-4.730468 1.328124-10.875-3.402344-13.726562zm0 0"/></symbol>
  <symbol id="bank" viewBox="0 0 511.999 511.999"><g><g><path d="M505.709,159.575L336.462,50.682c-3.379-2.174-7.879-1.196-10.052,2.181c-2.173,3.378-1.197,7.878,2.181,10.052l166.773,107.301h-38.878L266.64,48.07c-6.463-4.158-14.816-4.157-21.28,0L55.514,170.216H16.636L255.991,16.204l33.899,21.81c3.379,2.173,7.878,1.197,10.052-2.181c2.173-3.378,1.197-7.878-2.181-10.052l-33.899-21.81c-4.776-3.073-10.947-3.073-15.723,0L6.291,159.575c-5.15,3.314-7.45,9.488-5.723,15.364c1.727,5.876,7.002,9.824,13.126,9.824h36.684v25.07v21.956c0,5.789,4.106,10.637,9.558,11.784v12.801c0,6.64,5.402,12.042,12.042,12.042h1v89.112c0,4.017,3.256,7.273,7.273,7.273c4.017,0,7.273-3.256,7.273-7.273v-96.385c0-4.017-3.256-7.273-7.273-7.273h-5.768v-10.04h51.513v10.038h-5.768c-4.017,0-7.273,3.256-7.273,7.273v160.696c0,4.017,3.256,7.273,7.273,7.273h5.768v10.915H74.483V429.11h5.768c4.017,0,7.273-3.256,7.273-7.273v-18.59c0-4.017-3.256-7.273-7.273-7.273c-4.017,0-7.273,3.256-7.273,7.273v11.317h-1c-6.64,0-12.042,5.401-12.042,12.041v12.801c-5.453,1.147-9.558,5.995-9.558,11.784v14.682H24.614c-8.04,0-14.581,6.541-14.581,14.581v15.299c0,8.04,6.541,14.581,14.581,14.581h462.772c8.04,0,14.581-6.541,14.581-14.581v-15.299c0-8.04-6.541-14.581-14.581-14.581h-25.764V451.19c0-5.789-4.106-10.637-9.558-11.784v-12.801c0-6.64-5.402-12.041-12.042-12.041h-1v-146.15h1c6.64,0,12.042-5.402,12.042-12.042v-12.801c5.453-1.147,9.558-5.995,9.558-11.784v-21.956v-25.07h36.684c6.124,0,11.399-3.948,13.126-9.824C513.159,169.063,510.859,162.888,505.709,159.575z M253.23,60.303c1.683-1.083,3.857-1.082,5.54,0l170.833,109.914H82.398L253.23,60.303z M64.924,184.762h382.151v17.797h-77.902h-70.585h-85.176h-70.585H64.924V184.762z M296.304,439.408v-12.801c0-6.64-5.402-12.041-12.042-12.041h-1v-146.15h1c6.64,0,12.042-5.402,12.042-12.042v-12.801c5.453-1.147,9.558-5.995,9.558-11.784v-14.683H361.9v14.683c0,5.789,4.106,10.637,9.558,11.784v12.801c0,6.64,5.402,12.042,12.042,12.042h1v146.15h-1c-6.64,0-12.042,5.401-12.042,12.041v12.801c-5.452,1.147-9.558,5.995-9.558,11.784v14.682h-56.038v-14.682C305.862,445.403,301.756,440.555,296.304,439.408zM140.542,439.408v-12.801c0-6.64-5.402-12.041-12.042-12.041h-1v-146.15h1c6.64,0,12.042-5.402,12.042-12.042v-12.801c5.452-1.147,9.558-5.995,9.558-11.784v-14.683h56.039v14.683c0,5.789,4.106,10.637,9.558,11.784v12.801c0,6.64,5.402,12.042,12.042,12.042h1v146.15h-1c-6.64,0-12.042,5.401-12.042,12.041v12.801c-5.452,1.147-9.558,5.995-9.558,11.784v14.682H150.1v-14.682C150.1,445.403,145.994,440.555,140.542,439.408z M275.989,429.11h5.768v10.915h-51.513V429.11h5.768c4.017,0,7.273-3.256,7.273-7.273V261.142c0-4.017-3.256-7.274-7.273-7.274h-5.768V243.83h51.513v10.038h-5.768c-4.017,0-7.273,3.256-7.273,7.273v160.696C268.716,425.854,271.972,429.11,275.989,429.11z M222.97,229.284h-0.032h-2.253v-12.178h70.63v12.178h-2.285c-0.005,0-0.011,0.001-0.016,0.001s-0.011-0.001-0.016-0.001H222.97z M220.685,454.213c0.71,0.231,1.466,0.36,2.253,0.36h66.059c0.811,0,1.589-0.139,2.318-0.384v11.684h-70.63V454.213z M67.21,229.284h-2.285v-12.178h70.63v12.178h-0.001h-2.285H67.21z M64.924,454.201c0.719,0.238,1.486,0.372,2.285,0.372h66.06c0.799,0,1.566-0.134,2.285-0.372v11.672h-70.63V454.201z M487.421,480.454l-0.02,15.333c0,0-0.004,0.001-0.015,0.001l-462.807-0.034l0.035-15.334L487.421,480.454z M444.77,454.572c0.807,0,1.58-0.137,2.306-0.379v11.68h-70.63v-11.665c0.713,0.234,1.473,0.364,2.265,0.364H444.77zM391.772,253.869h-5.768V243.83h51.513v10.038h-5.768c-4.017,0-7.273,3.256-7.273,7.273v160.696c0,4.017,3.256,7.274,7.273,7.274h5.768v10.915h-51.513v-10.915h5.768c4.017,0,7.273-3.256,7.273-7.273V261.142C399.045,257.125,395.789,253.869,391.772,253.869zM447.077,229.284L447.077,229.284h-2.286c-0.003,0-0.007,0.001-0.01,0.001s-0.007-0.001-0.01-0.001h-66.039h-0.02h-2.265v-12.178h70.63V229.284z"/></g></g><g><g><path d="M259.076,113.165V90.459c7.83,0.559,10.738,4.138,13.422,4.138c3.356,0,4.922-4.25,4.922-6.375c0-5.48-10.738-7.829-18.344-8.053v-3.02c0-1.343-1.677-2.573-3.355-2.573c-1.902,0-3.244,1.231-3.244,2.573v3.244c-10.626,1.118-21.252,6.711-21.252,20.804c0,14.317,11.186,18.344,21.252,21.923v26.283c-11.409-0.894-14.429-8.724-18.12-8.724c-2.796,0-5.145,3.691-5.145,6.376c0,5.481,9.395,12.975,23.265,13.199h0v3.468c0,1.343,1.342,2.573,3.244,2.573c1.677,0,3.355-1.231,3.355-2.573v-3.803c12.08-1.677,20.357-9.283,20.357-23.041C279.433,121.666,268.807,116.744,259.076,113.165z M253.149,111.04c-5.929-2.237-10.738-4.586-10.738-10.962c0-5.816,4.474-8.612,10.738-9.395V111.04z M258.406,149.181V125.58c5.48,2.349,9.842,5.481,9.843,12.528C268.249,144.483,264.446,148.063,258.406,149.181z"/></g></g></symbol>
  <symbol id="team" viewBox="0 0 512 512"> <g> <g> <path d="M451.72,237.26c-17.422-8.71-50.087-8.811-51.469-8.811c-4.142,0-7.5,3.358-7.5,7.5c0,4.142,3.358,7.5,7.5,7.5 c8.429,0.001,32.902,1.299,44.761,7.228c1.077,0.539,2.221,0.793,3.348,0.793c2.751,0,5.4-1.52,6.714-4.147 C456.927,243.618,455.425,239.113,451.72,237.26z"/> </g> </g> <g> <g> <path d="M489.112,344.041l-30.975-8.85c-1.337-0.382-2.271-1.62-2.271-3.011v-10.339c2.52-1.746,4.924-3.7,7.171-5.881 c10.89-10.568,16.887-24.743,16.887-39.915v-14.267l2.995-5.989c3.287-6.575,5.024-13.936,5.024-21.286v-38.65 c0-4.142-3.358-7.5-7.5-7.5H408.27c-26.244,0-47.596,21.352-47.596,47.596v0.447c0,6.112,1.445,12.233,4.178,17.699l3.841,7.682 v12.25c0,19.414,9.567,36.833,24.058,47.315l0.002,10.836c0,1.671,0,2.363-6.193,4.133l-15.114,4.318l-43.721-15.898 c0.157-2.063-0.539-4.161-2.044-5.742l-13.971-14.678v-24.64c1.477-1.217,2.933-2.467,4.344-3.789 c17.625-16.52,27.733-39.844,27.733-63.991v-19.678c5.322-11.581,8.019-23.836,8.019-36.457v-80.19c0-4.142-3.358-7.5-7.5-7.5 H232.037c-39.51,0-71.653,32.144-71.653,71.653v16.039c0,12.621,2.697,24.876,8.019,36.457v16.931 c0,28.036,12.466,53.294,32.077,69.946v25.22l-13.971,14.678c-1.505,1.581-2.201,3.679-2.044,5.742l-46.145,16.779 c-3.344,1.216-6.451,2.863-9.272,4.858l-7.246-3.623c21.57-9.389,28.403-22.594,28.731-23.25c1.056-2.111,1.056-4.597,0-6.708 c-5.407-10.814-6.062-30.635-6.588-46.561c-0.175-5.302-0.341-10.311-0.658-14.771c-2.557-35.974-29.905-63.103-63.615-63.103 s-61.059,27.128-63.615,63.103c-0.317,4.461-0.483,9.47-0.658,14.773c-0.526,15.925-1.182,35.744-6.588,46.558 c-1.056,2.111-1.056,4.597,0,6.708c0.328,0.656,7.147,13.834,28.76,23.234l-20.127,10.063C6.684,358.176,0,368.991,0,381.02 v55.409c0,4.142,3.358,7.5,7.5,7.5s7.5-3.358,7.5-7.5V381.02c0-6.312,3.507-11.987,9.152-14.81l25.063-12.531l8.718,8.285 c6.096,5.793,13.916,8.688,21.739,8.688c7.821,0,15.645-2.897,21.739-8.688l8.717-8.284l8.172,4.086 c-3.848,6.157-6.032,13.377-6.032,20.94v57.725c0,4.142,3.358,7.5,7.5,7.5c4.142,0,7.5-3.358,7.5-7.5v-57.725 c0-10.296,6.501-19.578,16.178-23.097l48.652-17.691l20.253,30.381c2.589,3.884,6.738,6.375,11.383,6.835 c0.518,0.051,1.033,0.076,1.547,0.076c4.098,0,8.023-1.613,10.957-4.546l12.356-12.356v78.124c0,4.142,3.358,7.5,7.5,7.5 c4.142,0,7.5-3.358,7.5-7.5v-78.124l12.356,12.356c2.933,2.934,6.858,4.547,10.957,4.547c0.513,0,1.029-0.025,1.546-0.076 c4.646-0.46,8.795-2.951,11.384-6.835l20.254-30.38l48.651,17.691c9.676,3.519,16.178,12.801,16.178,23.097v57.725 c0,4.142,3.358,7.5,7.5,7.5c4.142,0,7.5-3.358,7.5-7.5v-57.725c0-10.428-4.143-20.208-11.093-27.441l1.853-0.529 c1.869-0.534,4.419-1.265,6.979-2.52l19.149,19.149v69.066c0,4.142,3.358,7.5,7.5,7.5c4.142,0,7.5-3.358,7.5-7.5v-69.066 l19.016-19.016c1.011,0.514,2.073,0.948,3.191,1.267l30.976,8.85c7.07,2.02,12.009,8.567,12.009,15.921v62.044 c0,4.142,3.358,7.5,7.5,7.5c4.142,0,7.5-3.358,7.5-7.5v-62.044C512,360.371,502.588,347.892,489.112,344.041z M48.115,330.794 c-14.029-5.048-21.066-11.778-24.07-15.453c2.048-5.354,3.376-11.486,4.275-17.959c4.136,9.917,11.063,18.383,19.795,24.423 V330.794z M91.08,351.092c-6.397,6.078-16.418,6.077-22.813-0.001l-6.975-6.628c1.177-2.205,1.824-4.705,1.824-7.324v-7.994 c5.232,1.635,10.794,2.517,16.558,2.517c5.757,0,11.316-0.886,16.557-2.512l-0.001,7.988c0,2.62,0.646,5.121,1.824,7.327 L91.08,351.092z M79.676,316.662c-22.396,0-40.615-18.22-40.615-40.615c0-4.142-3.358-7.5-7.5-7.5c-0.42,0-0.83,0.043-1.231,0.11 c0.022-0.645,0.043-1.291,0.065-1.93c0.167-5.157,0.328-10.028,0.625-14.206c0.958-13.476,6.343-25.894,15.163-34.968 c8.899-9.156,20.793-14.198,33.491-14.198s24.591,5.042,33.491,14.198c8.82,9.074,14.205,21.492,15.163,34.968 c0.296,4.177,0.458,9.047,0.628,14.203c0.015,0.443,0.03,0.892,0.045,1.338c-8.16-12.572-20.762-21.837-37.045-27.069 c-15.043-4.833-27.981-4.534-28.527-4.52c-1.964,0.055-3.828,0.877-5.191,2.291l-13.532,14.034 c-2.875,2.982-2.789,7.73,0.193,10.605s7.73,2.788,10.605-0.193l11.26-11.677c9.697,0.474,40.894,4.102,53.027,30.819 C116.738,302.04,99.816,316.662,79.676,316.662z M111.229,330.819l0.001-8.945c8.725-6.007,15.662-14.457,19.801-24.449 c0.899,6.458,2.226,12.576,4.27,17.918C132.314,318.983,125.244,325.773,111.229,330.819z M183.403,209.145v-18.608 c0-1.129-0.255-2.244-0.746-3.261c-4.826-9.994-7.273-20.598-7.273-31.518V139.72c0-31.239,25.415-56.653,56.653-56.653h104.769 v72.692c0,10.92-2.447,21.524-7.273,31.518c-0.491,1.017-0.746,2.132-0.746,3.261v21.355c0,20.311-8.165,39.15-22.991,53.047 c-1.851,1.734-3.772,3.36-5.758,4.875c-0.044,0.03-0.086,0.063-0.129,0.094c-13.889,10.545-30.901,15.67-48.667,14.519 C213.201,281.965,183.403,248.897,183.403,209.145z M225.632,360.056c-0.052,0.052-0.173,0.175-0.418,0.149 c-0.244-0.024-0.34-0.167-0.381-0.229l-23.325-34.988l7.506-7.887l35.385,24.187L225.632,360.056z M256.095,331.113 l-40.615-27.762v-14c10.509,5.681,22.276,9.234,34.791,10.044c1.977,0.128,3.942,0.191,5.901,0.191 c14.341,0,28.143-3.428,40.538-9.935v13.7L256.095,331.113z M287.357,359.978c-0.041,0.062-0.137,0.205-0.381,0.229 c-0.245,0.031-0.365-0.098-0.418-0.149l-18.767-18.767l35.385-24.188l7.507,7.887L287.357,359.978z M424.308,353.65l-17.02-17.019 c0.297-1.349,0.465-2.826,0.464-4.455l-0.001-3.165c4.723,1.55,9.701,2.47,14.852,2.624c0.578,0.018,1.151,0.026,1.727,0.026 c5.692,0,11.248-0.86,16.536-2.501v3.02c0,1.496,0.188,2.962,0.542,4.371L424.308,353.65z M452.591,305.196 c-7.949,7.714-18.45,11.788-29.537,11.446c-21.704-0.651-39.361-19.768-39.361-42.613v-14.021c0-1.165-0.271-2.313-0.792-3.354 l-4.633-9.266c-1.697-3.395-2.594-7.195-2.594-10.991v-0.447c0-17.974,14.623-32.596,32.596-32.596h64.673v31.15 c0,5.034-1.19,10.075-3.441,14.578l-3.786,7.572c-0.521,1.042-0.792,2.189-0.792,3.354v16.038 C464.924,287.126,460.544,297.478,452.591,305.196z"/> </g> </g> <g> <g> <path d="M472.423,380.814c-4.142,0-7.5,3.358-7.5,7.5v48.115c0,4.142,3.358,7.5,7.5,7.5c4.142,0,7.5-3.358,7.5-7.5v-48.115 C479.923,384.173,476.565,380.814,472.423,380.814z"/> </g> </g> <g> <g> <path d="M39.577,390.728c-4.142,0-7.5,3.358-7.5,7.5v38.201c0,4.142,3.358,7.5,7.5,7.5c4.142,0,7.5-3.358,7.5-7.5v-38.201 C47.077,394.087,43.719,390.728,39.577,390.728z"/> </g> </g> <g> <g> <path d="M317.532,158.475c-28.366-28.366-87.715-22.943-111.917-19.295c-7.623,1.149-13.155,7.6-13.155,15.339v17.278 c0,4.142,3.358,7.5,7.5,7.5c4.142,0,7.5-3.358,7.5-7.5v-17.279c0-0.255,0.168-0.473,0.392-0.507 c9.667-1.457,28.85-3.705,48.725-2.38c23.388,1.557,40.328,7.428,50.349,17.45c2.929,2.929,7.678,2.929,10.606,0 C320.461,166.152,320.461,161.403,317.532,158.475z"/> </g> </g> <g> <g> <path d="M167.884,396.853c-4.142,0-7.5,3.358-7.5,7.5v32.077c0,4.142,3.358,7.5,7.5,7.5c4.142,0,7.5-3.358,7.5-7.5v-32.077 C175.384,400.212,172.026,396.853,167.884,396.853z"/> </g> </g> <g> <g> <path d="M344.306,396.853c-4.142,0-7.5,3.358-7.5,7.5v32.077c0,4.142,3.358,7.5,7.5,7.5c4.142,0,7.5-3.358,7.5-7.5v-32.077 C351.806,400.212,348.448,396.853,344.306,396.853z"/> </g> </g> </symbol>
  <symbol id="ssjcu" viewBox="0 0 512 512"><path d="M309.612,52.742a8,8,0,0,0-6.471-5.457L276.89,43.5,265.162,19.936a8,8,0,0,0-14.324,0L239.11,43.5l-26.251,3.783a8,8,0,0,0-4.42,13.67L227.4,79.279l-4.472,25.858a8,8,0,0,0,11.581,8.457L258,101.345l23.5,12.249a8,8,0,0,0,11.581-8.457L288.6,79.279l18.957-18.324A8,8,0,0,0,309.612,52.742ZM274.439,70.719a8,8,0,0,0-2.322,7.115l2.438,14.1-12.857-6.7a7.992,7.992,0,0,0-7.4,0l-12.857,6.7,2.438-14.1a8,8,0,0,0-2.322-7.115l-10.268-9.925,14.251-2.054a8,8,0,0,0,6.021-4.353L258,41.456l6.435,12.931a8,8,0,0,0,6.021,4.353l14.251,2.054Z"/><path d="M439.612,52.742a8,8,0,0,0-6.471-5.457L406.89,43.5,395.162,19.936a8,8,0,0,0-14.324,0L369.11,43.5l-26.251,3.783a8,8,0,0,0-4.42,13.67L357.4,79.279l-4.472,25.858a8,8,0,0,0,11.581,8.457L388,101.345l23.5,12.249a8,8,0,0,0,11.581-8.457L418.6,79.279l18.957-18.324A8,8,0,0,0,439.612,52.742ZM404.439,70.719a8,8,0,0,0-2.322,7.115l2.438,14.1-12.857-6.7a7.992,7.992,0,0,0-7.4,0l-12.857,6.7,2.438-14.1a8,8,0,0,0-2.322-7.115l-10.268-9.925,14.251-2.054a8,8,0,0,0,6.021-4.353L388,41.456l6.435,12.931a8,8,0,0,0,6.021,4.353l14.251,2.054Z"/><path d="M175.612,52.742a8,8,0,0,0-6.471-5.457L142.89,43.5,131.162,19.936a8,8,0,0,0-14.324,0L105.11,43.5,78.859,47.285a8,8,0,0,0-4.42,13.67L93.4,79.279l-4.472,25.858a8,8,0,0,0,11.581,8.457L124,101.345l23.5,12.249a8,8,0,0,0,11.581-8.457L154.6,79.279l18.957-18.324A8,8,0,0,0,175.612,52.742ZM140.439,70.719a8,8,0,0,0-2.322,7.115l2.438,14.1-12.857-6.7a7.992,7.992,0,0,0-7.4,0l-12.857,6.7,2.438-14.1a8,8,0,0,0-2.322-7.115L97.293,60.794l14.251-2.054a8,8,0,0,0,6.021-4.353L124,41.456l6.435,12.931a8,8,0,0,0,6.021,4.353l14.251,2.054Z"/><path d="M48,368H80a8,8,0,0,0,8-8V328a8,8,0,0,0-8-8H48a8,8,0,0,0-8,8v32A8,8,0,0,0,48,368Zm8-32H72v16H56Z"/><path d="M208,368h32a8,8,0,0,0,8-8V328a8,8,0,0,0-8-8H208a8,8,0,0,0-8,8v32A8,8,0,0,0,208,368Zm8-32h16v16H216Z"/><path d="M208,304h32a8,8,0,0,0,8-8V264a8,8,0,0,0-8-8H208a8,8,0,0,0-8,8v32A8,8,0,0,0,208,304Zm8-32h16v16H216Z"/><path d="M272,368h32a8,8,0,0,0,8-8V328a8,8,0,0,0-8-8H272a8,8,0,0,0-8,8v32A8,8,0,0,0,272,368Zm8-32h16v16H280Z"/><path d="M272,304h32a8,8,0,0,0,8-8V264a8,8,0,0,0-8-8H272a8,8,0,0,0-8,8v32A8,8,0,0,0,272,304Zm8-32h16v16H280Z"/><path d="M48,432H80a8,8,0,0,0,8-8V392a8,8,0,0,0-8-8H48a8,8,0,0,0-8,8v32A8,8,0,0,0,48,432Zm8-32H72v16H56Z"/><path d="M496,288H408V232a8,8,0,0,0-8-8H344V168a8,8,0,0,0-8-8H176a8,8,0,0,0-8,8v56H112a8,8,0,0,0-8,8v56H16a8,8,0,0,0-8,8V488a8,8,0,0,0,8,8H496a8,8,0,0,0,8-8V296A8,8,0,0,0,496,288ZM104,480H24V304h80Zm80-304H328v48H184ZM296,480H216V400h80Zm96,0H312V392a8,8,0,0,0-8-8H208a8,8,0,0,0-8,8v88H120V240H392Zm96,0H408V304h80Z"/><path d="M304,192H240a8,8,0,0,0,0,16h64a8,8,0,0,0,0-16Z"/><circle cx="208" cy="200" r="8"/><path d="M144,304h32a8,8,0,0,0,8-8V264a8,8,0,0,0-8-8H144a8,8,0,0,0-8,8v32A8,8,0,0,0,144,304Zm8-32h16v16H152Z"/><path d="M144,368h32a8,8,0,0,0,8-8V328a8,8,0,0,0-8-8H144a8,8,0,0,0-8,8v32A8,8,0,0,0,144,368Zm8-32h16v16H152Z"/><path d="M144,432h32a8,8,0,0,0,8-8V392a8,8,0,0,0-8-8H144a8,8,0,0,0-8,8v32A8,8,0,0,0,144,432Zm8-32h16v16H152Z"/><path d="M336,304h32a8,8,0,0,0,8-8V264a8,8,0,0,0-8-8H336a8,8,0,0,0-8,8v32A8,8,0,0,0,336,304Zm8-32h16v16H344Z"/><path d="M336,368h32a8,8,0,0,0,8-8V328a8,8,0,0,0-8-8H336a8,8,0,0,0-8,8v32A8,8,0,0,0,336,368Zm8-32h16v16H344Z"/><path d="M336,432h32a8,8,0,0,0,8-8V392a8,8,0,0,0-8-8H336a8,8,0,0,0-8,8v32A8,8,0,0,0,336,432Zm8-32h16v16H344Z"/><path d="M432,368h32a8,8,0,0,0,8-8V328a8,8,0,0,0-8-8H432a8,8,0,0,0-8,8v32A8,8,0,0,0,432,368Zm8-32h16v16H440Z"/><path d="M432,432h32a8,8,0,0,0,8-8V392a8,8,0,0,0-8-8H432a8,8,0,0,0-8,8v32A8,8,0,0,0,432,432Zm8-32h16v16H440Z"/></symbol>
  <symbol id="timePeriud" viewBox="0 0 48 60"><g id="Page-1" fill="none" fill-rule="evenodd"><g id="056---Time-Zone-Change" fill="rgb(0,0,0)" fill-rule="nonzero"><path id="Shape" d="m42 0h-36c-3.31233757.00330738-5.99669262 2.68766243-6 6v48c.00330738 3.3123376 2.68766243 5.9966926 6 6h36c3.3123376-.0033074 5.9966926-2.6876624 6-6v-48c-.0033074-3.31233757-2.6876624-5.99669262-6-6zm-40 10h44v40c0 1.6568542-1.3431458 3-3 3h-38c-1.65685425 0-3-1.3431458-3-3zm4-8h36c2.209139 0 4 1.790861 4 4v2h-44v-2c0-2.209139 1.790861-4 4-4zm36 56h-36c-2.209139 0-4-1.790861-4-4v-.026c.86038886.6618067 1.91453073 1.0223232 3 1.026h38c1.0854693-.0036768 2.1396111-.3641933 3-1.026v.026c0 2.209139-1.790861 4-4 4z"/><path id="Shape" d="m25 6h3c.5522847 0 1-.44771525 1-1s-.4477153-1-1-1h-3c-.5522847 0-1 .44771525-1 1s.4477153 1 1 1z"/><circle id="Oval" cx="21" cy="5" r="1"/><path id="Shape" d="m7.785 34.158c.009.011.012.024.023.034s.023.014.034.023c2.4306336 2.4251671 5.7244285 3.7864921 9.158 3.785.337 0 .671-.018 1-.043v.043c-.0014921 3.4335715 1.3598329 6.7273664 3.785 9.158.009.011.012.024.023.034s.023.014.034.023c5.0625256 5.0464598 13.2534744 5.0464598 18.316 0 .011-.009.024-.012.034-.023s.014-.023.023-.034c5.0464598-5.0625256 5.0464598-13.2534744 0-18.316-.009-.011-.012-.024-.023-.034s-.023-.014-.034-.023c-2.4306336-2.4251671-5.7244285-3.7864921-9.158-3.785-.338 0-.671.025-1 .051 0-.017 0-.034 0-.051.0014921-3.4335715-1.3598329-6.7273664-3.785-9.158-.009-.011-.012-.024-.023-.034s-.023-.014-.034-.023c-5.0625256-5.0464598-13.2534744-5.0464598-18.316 0-.011.009-.024.012-.034.023s-.014.023-.023.034c-5.04645978 5.0625256-5.04645978 13.2534744 0 18.316zm14.767-3.192.67.67c.2510745.2599566.6228779.3642126.9725073.2726972.3496295-.0915155.6226744-.3645604.7141899-.7141899.0915154-.3496294-.0127406-.7214328-.2726972-.9725073l-.67-.67c1.7099273-1.4283328 3.8150074-2.300856 6.034-2.501v.949c0 .5522847.4477153 1 1 1s1-.4477153 1-1v-.949c2.218881.1998585 4.3239496 1.0720281 6.034 2.5l-.67.67c-.2599566.2510745-.3642126.6228779-.2726972.9725073.0915155.3496295.3645604.6226744.7141899.7141899.3496294.0915154.7214328-.0127406.9725073-.2726972l.67-.67c1.4285198 1.7102012 2.3010546 3.815658 2.501 6.035h-.949c-.5522847 0-1 .4477153-1 1s.4477153 1 1 1h.949c-.1998585 2.218881-1.0720281 4.3239496-2.5 6.034l-.67-.67c-.3923789-.3789722-1.0160848-.3735524-1.4018186.0121814s-.3911536 1.0094397-.0121814 1.4018186l.67.67c-1.7102012 1.4285198-3.815658 2.3010546-6.035 2.501v-.949c0-.5522847-.4477153-1-1-1s-1 .4477153-1 1v.949c-2.218881-.1998585-4.3239496-1.0720281-6.034-2.5l.67-.67c.2599566-.2510745.3642126-.6228779.2726972-.9725073-.0915155-.3496295-.3645604-.6226744-.7141899-.7141899-.3496294-.0915154-.7214328.0127406-.9725073.2726972l-.67.67c-1.4285198-1.7102012-2.3010546-3.815658-2.501-6.035h.949c.5522847 0 1-.4477153 1-1s-.4477153-1-1-1h-.949c.200144-2.2189926 1.0726672-4.3240727 2.501-6.034zm5.429-5.6c-2.3213576.5534708-4.4453883 1.7357176-6.139 3.417-.011.009-.024.012-.034.023s-.014.023-.023.034c-1.9121129 1.9273627-3.1712565 4.4061267-3.6 7.087-2.963335.3416427-5.9361575-.556175-8.215-2.481l.67-.67c.2599566-.2510745.3642126-.6228779.2726972-.9725073-.0915155-.3496295-.3645604-.6226744-.7141899-.7141899-.34962941-.0915154-.72143283.0127406-.9725073.2726972l-.67.67c-1.42940248-1.7088867-2.30331729-3.8132596-2.505-6.032h.949c.55228475 0 1-.4477153 1-1s-.44771525-1-1-1h-.949c.19985851-2.218881 1.07202812-4.3239496 2.5-6.034l.67.67c.25107447.2599566.62287789.3642126.9725073.2726972.3496295-.0915155.6226744-.3645604.7141899-.7141899.0915154-.3496294-.0127406-.7214328-.2726972-.9725073l-.67-.67c1.7102012-1.4285198 3.815658-2.3010546 6.035-2.501v.949c0 .5522847.4477153 1 1 1s1-.4477153 1-1v-.949c2.218881.1998585 4.3239496 1.0720281 6.034 2.5l-.67.67c-.2599566.2510745-.3642126.6228779-.2726972.9725073.0915155.3496295.3645604.6226744.7141899.7141899.3496294.0915154.7214328-.0127406.9725073-.2726972l.67-.67c1.6502337 1.9726519 2.553666 4.4631089 2.552 7.035 0 .125-.015.245-.019.368z"/><path id="Shape" d="m31 41c1.6568542 0 3-1.3431458 3-3 0-.065-.015-.127-.019-.191l4.413-1.89c.4993742-.2225705.7274312-.8049312.5119982-1.3074258-.2154329-.5024946-.7944852-.7388258-1.2999982-.5305742l-4.406 1.889c-.3305529-.3551856-.742324-.6248956-1.2-.786v-2.184c0-.5522847-.4477153-1-1-1s-1 .4477153-1 1v2.184c-1.3765475.4848523-2.2026937 1.8918441-1.9553873 3.330178s1.49595 2.4885874 2.9553873 2.485822zm0-4c.5522847 0 1 .4477153 1 1s-.4477153 1-1 1-1-.4477153-1-1 .4477153-1 1-1z"/><path id="Shape" d="m24.919 21.606c-.2176426-.5075063-.8054496-.7425395-1.313-.525l-4.406 1.889c-.7407075-.8121612-1.867208-1.1525961-2.9337427-.8865939-1.0665347.2660023-1.9012261 1.0955741-2.173785 2.1604521s.0609389 2.1934516.8685277 2.9391418l-.873 2c-.2209139.5064451.0105549 1.0960861.517 1.317s1.0960861-.0105549 1.317-.517l.875-2c.07.005.137.021.208.021 1.6568542 0 3-1.3431458 3-3 0-.065-.015-.127-.019-.191l4.413-1.89c.2438218-.1054305.4356757-.3035402.5332312-.5506183.0975555-.247078.092795-.5228184-.0132312-.7663817zm-7.919 4.394c-.5522847 0-1-.4477153-1-1s.4477153-1 1-1 1 .4477153 1 1-.4477153 1-1 1z"/><path id="Shape" d="m31 15h4c1.6568542 0 3 1.3431458 3 3v2.586l-.293-.293c-.3923789-.3789722-1.0160848-.3735524-1.4018186.0121814s-.3911536 1.0094397-.0121814 1.4018186l2 2c.3904999.3903819 1.0235001.3903819 1.414 0l2-2c.3789722-.3923789.3735524-1.0160848-.0121814-1.4018186s-1.0094397-.3911536-1.4018186-.0121814l-.293.293v-2.586c-.0033061-2.7600532-2.2399468-4.9966939-5-5h-4c-.5522847 0-1 .4477153-1 1s.4477153 1 1 1z"/><path id="Shape" d="m17 48h-4c-1.6568542 0-3-1.3431458-3-3v-2.586l.293.293c.3923789.3789722 1.0160848.3735524 1.4018186-.0121814s.3911536-1.0094397.0121814-1.4018186l-2-2c-.39049985-.3903819-1.02350015-.3903819-1.414 0l-2 2c-.37897221.3923789-.37355237 1.0160848.01218142 1.4018186.3857338.3857338 1.00943969.3911536 1.40181858.0121814l.293-.293v2.586c.00330612 2.7600532 2.2399468 4.9966939 5 5h4c.5522847 0 1-.4477153 1-1s-.4477153-1-1-1z"/></g></g></symbol>
  <symbol id="minPipleLive" viewBox="0 0 64 64"><g id="Business"><path d="M32,10a5,5,0,1,0,5,5A5.006,5.006,0,0,0,32,10Zm0,8a3,3,0,1,1,3-3A3,3,0,0,1,32,18Z"/><path d="M49,48h2a1,1,0,0,1,1,1,1,1,0,0,0,2,0,3,3,0,0,0-3-3V45a1,1,0,0,0-2,0v1a3,3,0,0,0,0,6h2a1,1,0,0,1,0,2H49a1,1,0,0,1-1-1,1,1,0,0,0-2,0,3,3,0,0,0,3,3v1a1,1,0,0,0,2,0V56a3,3,0,0,0,0-6H49a1,1,0,0,1,0-2Z"/><path d="M55,39.45V37.16l1.95-5.84a1,1,0,0,0-.14-.9A.983.983,0,0,0,56,30H51V15a1,1,0,0,0-1-1H45V13a1,1,0,0,0-1-1H41.54a9.532,9.532,0,0,0-.67-1.62l1.74-1.74a1.008,1.008,0,0,0,0-1.42L39.78,4.39a1.008,1.008,0,0,0-1.42,0L36.62,6.13A9.532,9.532,0,0,0,35,5.46V3a1,1,0,0,0-1-1H30a1,1,0,0,0-1,1V5.46a9.532,9.532,0,0,0-1.62.67L25.64,4.39a1.008,1.008,0,0,0-1.42,0L21.39,7.22a1.008,1.008,0,0,0,0,1.42l1.74,1.74A9.532,9.532,0,0,0,22.46,12H20a1,1,0,0,0-1,1v1H14a1,1,0,0,0-1,1V28.09a6,6,0,1,0,2,0V16h4v1a1,1,0,0,0,1,1h2.46a9.532,9.532,0,0,0,.67,1.62l-1.74,1.74a1.008,1.008,0,0,0,0,1.42l2.83,2.83a1.008,1.008,0,0,0,1.42,0l1.74-1.74a9.532,9.532,0,0,0,1.62.67V27a1,1,0,0,0,1,1h4a1,1,0,0,0,1-1V24.54a9.532,9.532,0,0,0,1.62-.67l1.74,1.74a1.008,1.008,0,0,0,1.42,0l2.83-2.83a1.008,1.008,0,0,0,0-1.42l-1.74-1.74A9.532,9.532,0,0,0,41.54,18H44a1,1,0,0,0,1-1V16h4V30H44a.983.983,0,0,0-.81.42,1,1,0,0,0-.14.9L45,37.16v2.29A15.288,15.288,0,0,0,38.04,51H26V47a7.008,7.008,0,0,0-7-7H9a7.008,7.008,0,0,0-7,7V61a1,1,0,0,0,1,1H25a1,1,0,0,0,1-1V53H38.05c.49,5.5,5.07,9,11.95,9,7.29,0,12-3.93,12-10A15.227,15.227,0,0,0,55,39.45ZM18,34a4,4,0,1,1-4-4A4,4,0,0,1,18,34ZM43,16H40.78a.985.985,0,0,0-.97.78,8.216,8.216,0,0,1-1.04,2.48,1,1,0,0,0,.14,1.24l1.58,1.57-1.42,1.42L37.5,21.91a1.013,1.013,0,0,0-1.24-.14,8.324,8.324,0,0,1-2.48,1.04.985.985,0,0,0-.78.97V26H31V23.78a.985.985,0,0,0-.78-.97,8.324,8.324,0,0,1-2.48-1.04,1.013,1.013,0,0,0-1.24.14l-1.57,1.58-1.42-1.42,1.58-1.57a1,1,0,0,0,.14-1.24,8.216,8.216,0,0,1-1.04-2.48.985.985,0,0,0-.97-.78H21V14h2.22a.985.985,0,0,0,.97-.78,8.216,8.216,0,0,1,1.04-2.48,1,1,0,0,0-.14-1.24L23.51,7.93l1.42-1.42L26.5,8.09a1,1,0,0,0,1.24.14,8.216,8.216,0,0,1,2.48-1.04A.985.985,0,0,0,31,6.22V4h2V6.22a.985.985,0,0,0,.78.97,8.216,8.216,0,0,1,2.48,1.04,1,1,0,0,0,1.24-.14l1.57-1.58,1.42,1.42L38.91,9.5a1,1,0,0,0-.14,1.24,8.216,8.216,0,0,1,1.04,2.48.985.985,0,0,0,.97.78H43ZM15.38,42l-1,2h-.76l-1-2ZM4,60V47a5,5,0,0,1,2.47-4.29L11.66,60Zm7.01-9.11L8.36,42.06c.21-.02.42-.06.64-.06h1.38l1.58,3.16ZM14.26,60h-.52l-1.43-4.77L13.85,46h.3l1.54,9.23Zm3.36-18H19c.22,0,.43.04.64.06l-2.65,8.83-.95-5.73ZM24,60H16.34l5.19-17.29A5,5,0,0,1,24,47ZM54.61,32l-1.33,4H46.72l-1.33-4ZM53,38v1H47V38ZM50,60c-2.35,0-10-.58-10-8a13.255,13.255,0,0,1,6.31-11h7.38A13.255,13.255,0,0,1,60,52C60,59.42,52.35,60,50,60Z"/></g></symbol>
  <symbol id="userPayments" enable-background="new 0 0 512 512" viewBox="0 0 512 512"><g><path d="m382.402 433.196c-4.143 0-7.5 3.357-7.5 7.5v18.149h-204.572c-4.143 0-7.5 3.357-7.5 7.5s3.357 7.5 7.5 7.5h204.572v17.5c0 3.118-2.537 5.654-5.656 5.654h-260.686c-3.119 0-5.657-2.536-5.657-5.654v-17.5h31.853c4.143 0 7.5-3.357 7.5-7.5s-3.357-7.5-7.5-7.5h-31.853v-438.191c0-3.118 2.538-5.654 5.657-5.654h51.361l5.415 19.73c2.698 9.837 11.708 16.708 21.909 16.708h103.315c10.201 0 19.211-6.871 21.909-16.707l5.415-19.731h51.362c3.119 0 5.656 2.536 5.656 5.654v41.012c0 4.143 3.357 7.5 7.5 7.5s7.5-3.357 7.5-7.5v-41.012c0-11.388-9.266-20.654-20.656-20.654h-260.686c-11.391 0-20.658 9.266-20.658 20.654v470.691c0 11.389 9.267 20.654 20.657 20.654h260.687c11.39 0 20.656-9.266 20.656-20.654v-50.649c0-4.142-3.357-7.5-7.5-7.5zm-80.073-418.196-4.325 15.762c-.917 3.343-3.979 5.677-7.444 5.677h-103.315c-3.466 0-6.527-2.334-7.444-5.678l-4.325-15.761z"/><path d="m416.598 83.5h-250c-4.143 0-7.5 3.357-7.5 7.5v64.948c0 4.143 3.357 7.5 7.5 7.5s7.5-3.357 7.5-7.5v-57.448h235v305h-235v-212.661c0-4.143-3.357-7.5-7.5-7.5s-7.5 3.357-7.5 7.5v220.161c0 4.143 3.357 7.5 7.5 7.5h250c4.143 0 7.5-3.357 7.5-7.5v-320c0-4.143-3.358-7.5-7.5-7.5z"/><path d="m338.471 122.811h-93.747c-4.143 0-7.5 3.357-7.5 7.5s3.357 7.5 7.5 7.5h93.747c4.143 0 7.5-3.357 7.5-7.5s-3.358-7.5-7.5-7.5z"/><path d="m293.077 178.484c-16.148 0-29.627 12.107-31.352 28.164l-7.694 71.628c-.442 4.118 2.537 7.815 6.656 8.258 4.11.449 7.815-2.537 8.258-6.656l4.28-39.847h39.702l4.28 39.847c.413 3.847 3.665 6.7 7.448 6.7.267 0 .538-.015.81-.044 4.119-.442 7.099-4.14 6.656-8.258l-7.694-71.628c-1.723-16.055-15.2-28.164-31.35-28.164zm-18.24 46.547 1.803-16.781c.904-8.418 7.971-14.766 16.438-14.766s15.533 6.348 16.437 14.766l1.803 16.781z"/><path d="m352.022 159.071c-4.143 0-7.5 3.357-7.5 7.5v7.318h-7.318c-4.143 0-7.5 3.357-7.5 7.5s3.357 7.5 7.5 7.5h7.318v7.319c0 4.143 3.357 7.5 7.5 7.5s7.5-3.357 7.5-7.5v-7.319h7.319c4.143 0 7.5-3.357 7.5-7.5s-3.357-7.5-7.5-7.5h-7.319v-7.318c0-4.142-3.357-7.5-7.5-7.5z"/><path d="m244.61 342.073h93.975c4.143 0 7.5-3.357 7.5-7.5s-3.357-7.5-7.5-7.5h-93.975c-4.143 0-7.5 3.357-7.5 7.5s3.358 7.5 7.5 7.5z"/><path d="m257.259 364.189c-4.143 0-7.5 3.357-7.5 7.5s3.357 7.5 7.5 7.5h68.678c4.143 0 7.5-3.357 7.5-7.5s-3.357-7.5-7.5-7.5z"/></g></symbol>
  <symbol id="payments" viewBox="0 0 512 512"> <g> <g> <path d="M172.55,391.902c-0.13-0.64-0.32-1.27-0.57-1.88c-0.25-0.6-0.56-1.18-0.92-1.72c-0.36-0.55-0.78-1.06-1.24-1.52 c-0.46-0.46-0.97-0.88-1.52-1.24c-0.54-0.36-1.12-0.67-1.73-0.92c-0.6-0.25-1.23-0.45-1.87-0.57c-1.29-0.26-2.62-0.26-3.9,0 c-0.64,0.12-1.27,0.32-1.88,0.57c-0.6,0.25-1.18,0.56-1.72,0.92c-0.55,0.36-1.06,0.78-1.52,1.24c-0.46,0.46-0.88,0.97-1.24,1.52 c-0.37,0.54-0.67,1.12-0.92,1.72c-0.25,0.61-0.45,1.24-0.57,1.88c-0.13,0.64-0.2,1.3-0.2,1.95c0,0.65,0.07,1.31,0.2,1.95 c0.12,0.64,0.32,1.27,0.57,1.87c0.25,0.61,0.55,1.19,0.92,1.73c0.36,0.55,0.78,1.06,1.24,1.52c0.46,0.46,0.97,0.88,1.52,1.24 c0.54,0.361,1.12,0.671,1.72,0.921c0.61,0.25,1.24,0.45,1.88,0.57c0.64,0.13,1.3,0.2,1.95,0.2c0.65,0,1.31-0.07,1.95-0.2 c0.64-0.12,1.27-0.32,1.87-0.57c0.61-0.25,1.19-0.561,1.73-0.921c0.55-0.36,1.06-0.78,1.52-1.24c0.46-0.46,0.88-0.97,1.24-1.52 c0.36-0.54,0.67-1.12,0.92-1.73c0.25-0.6,0.44-1.23,0.57-1.87s0.2-1.3,0.2-1.95S172.68,392.542,172.55,391.902z"/> </g> </g> <g> <g> <path d="M459.993,394.982c-0.039-0.1-0.079-0.199-0.121-0.297c-9.204-21.537-30.79-29.497-56.336-20.772l-69.668,19.266 c-4.028-12.198-14.075-22.578-28.281-27.85c-0.088-0.032-0.176-0.064-0.265-0.094l-76.581-25.992 c-6.374-8.239-26.34-29.321-63.723-29.321c-26.125,0-49.236,17.922-62.458,37.457H10c-5.523,0-10,4.477-10,10v126.077 c0,5.523,4.477,10,10,10h59.457c5.523,0,10-4.477,10-10v-8.634h27.883c5.523,0,10-4.477,10-10v-2.878 c16.254,1.418,21.6,4.501,36.528,13.109c11.48,6.62,28.831,16.625,60.077,30.674c0.145,0.065,0.292,0.127,0.439,0.185 c5.997,2.359,17.72,6.065,32.173,6.065c10.06,0,21.445-1.797,33.131-7.094l153.991-55.136c0.274-0.098,0.544-0.208,0.808-0.33 C449.204,442.646,471.135,423.563,459.993,394.982z M59.457,473.455H20V367.378h39.457V473.455z M97.34,454.821H79.457v-87.443 H97.34V454.821z M426.496,431.074l-153.922,55.111c-0.135,0.048-0.318,0.12-0.451,0.174c-0.135,0.055-0.27,0.113-0.403,0.174 c-21.437,9.852-41.814,3.954-49.8,0.849c-30.182-13.581-46.291-22.87-58.061-29.657c-16.364-9.436-24.249-13.984-46.519-15.823 V361.36c9.479-15.536,27.861-31.439,47.679-31.439c33.986,0,48.387,22.105,48.953,22.997c1.221,1.986,3.098,3.483,5.305,4.232 l79.475,26.974c12.693,4.764,19.401,15.634,16.318,26.474c-1.423,5.006-4.711,9.158-9.257,11.691 c-4.507,2.511-9.717,3.132-14.683,1.758l-89.593-28.392c-5.268-1.669-10.886,1.247-12.554,6.512 c-1.669,5.265,1.247,10.885,6.512,12.554l89.749,28.441c0.095,0.03,0.19,0.059,0.286,0.086c3.583,1.019,7.231,1.523,10.857,1.523 c6.638,0,13.203-1.691,19.161-5.011c9.213-5.133,15.875-13.547,18.759-23.692c0.23-0.81,0.434-1.62,0.611-2.43l75.083-20.8 c10.844-3.704,25.079-5.039,31.417,9.558C447.978,419.533,430.928,428.96,426.496,431.074z"/> </g> </g> <g> <g> <path d="M359.06,131.543c-0.13-0.64-0.32-1.27-0.58-1.88c-0.25-0.6-0.55-1.18-0.92-1.72c-0.36-0.55-0.78-1.06-1.24-1.52 c-0.46-0.46-0.97-0.88-1.52-1.24c-0.54-0.36-1.12-0.67-1.72-0.92c-0.61-0.25-1.24-0.45-1.87-0.57c-1.29-0.26-2.62-0.26-3.91,0 c-0.64,0.12-1.27,0.32-1.87,0.57c-0.61,0.25-1.19,0.56-1.73,0.92c-0.55,0.36-1.06,0.78-1.52,1.24c-0.46,0.46-0.88,0.97-1.24,1.52 c-0.36,0.54-0.67,1.12-0.92,1.72c-0.25,0.61-0.45,1.24-0.57,1.88c-0.13,0.64-0.2,1.3-0.2,1.95c0,0.65,0.07,1.31,0.2,1.95 c0.12,0.64,0.32,1.27,0.57,1.87c0.25,0.61,0.56,1.19,0.92,1.73c0.36,0.55,0.78,1.06,1.24,1.52c0.46,0.46,0.97,0.88,1.52,1.24 c0.54,0.36,1.12,0.67,1.73,0.92c0.6,0.25,1.23,0.44,1.87,0.57s1.3,0.2,1.95,0.2c0.65,0,1.31-0.07,1.96-0.2 c0.63-0.13,1.26-0.32,1.87-0.57c0.6-0.25,1.18-0.56,1.72-0.92c0.55-0.36,1.06-0.78,1.52-1.24c0.46-0.46,0.88-0.97,1.24-1.52 c0.37-0.54,0.67-1.12,0.92-1.73c0.26-0.6,0.45-1.23,0.58-1.87c0.13-0.64,0.19-1.3,0.19-1.95 C359.25,132.843,359.19,132.183,359.06,131.543z"/> </g> </g> <g> <g> <path d="M502,33.891h-59.457c-5.523,0-10,4.477-10,10v8.634H404.66c-5.523,0-10,4.477-10,10v2.878 c-16.254-1.419-21.6-4.501-36.527-13.109c-11.48-6.62-28.831-16.625-60.078-30.674c-0.145-0.066-0.291-0.127-0.44-0.185 c-10.171-4.002-36.828-11.876-65.299,1.027l-40.24,14.408L158.157,2.952c-3.905-3.905-10.237-3.905-14.142,0L32.657,114.309 c-3.602,3.603-4.293,9.85,0,14.143l190.287,190.287c3.045,3.046,10.175,3.967,14.143,0l101.665-101.664 c2.643,0.228,5.386,0.351,8.229,0.351c26.126,0,49.236-17.922,62.457-37.456H502c5.523,0,10-4.477,10-10V43.891 C512,38.368,507.523,33.891,502,33.891z M151.085,24.165l22.792,22.792c-6.775,4.19-14.608,6.432-22.792,6.432 c-8.185,0-16.017-2.241-22.792-6.432L151.085,24.165z M76.663,144.173L53.871,121.38l22.792-22.792 c4.19,6.775,6.432,14.608,6.432,22.792C83.095,129.564,80.854,137.397,76.663,144.173z M230.016,297.525l-22.788-22.788 c13.913-8.586,31.661-8.586,45.575,0L230.016,297.525z M267.211,260.331c-22.098-16.03-52.292-16.03-74.39,0L91.07,158.579 c7.809-10.74,12.025-23.641,12.025-37.199c0-13.559-4.215-26.459-12.025-37.199l22.817-22.816 c10.74,7.809,23.64,12.025,37.199,12.025c13.559,0,26.459-4.216,37.199-12.025l21.629,21.629 c-4.667,0.689-9.218,2.227-13.462,4.592c-7.168,3.994-12.792,9.975-16.294,17.211c-11.28,2.089-21.723,7.55-29.915,15.741 c-22.225,22.226-22.225,58.389,0.001,80.615c11.112,11.112,25.709,16.669,40.307,16.669c14.597,0,29.195-5.556,40.308-16.669 c7.23-7.23,12.295-16.116,14.832-25.8l33.764,11.459c-3.801,17.608,0.092,36.132,10.593,50.682L267.211,260.331z M206.413,162.018 c0.088,0.032,0.176,0.064,0.265,0.094l19.996,6.787c-1.51,6.815-4.927,13.081-9.957,18.112c-14.428,14.426-37.904,14.428-52.33,0 c-14.428-14.427-14.428-37.902,0-52.33c3.48-3.482,7.587-6.203,12.062-8.048C178.295,141.995,189.356,155.688,206.413,162.018z M304.457,223.084c-3.86-6.29-6.044-13.469-6.389-20.796c4.79,3.463,10.644,6.856,17.636,9.549L304.457,223.084z M394.659,165.983 c-9.478,15.538-27.86,31.441-47.678,31.441c-3.708,0-7.183-0.264-10.432-0.734c-0.013-0.002-0.026-0.004-0.039-0.006 c-21.596-3.137-33.213-15.411-37.042-20.271c-0.204-0.3-1.073-1.437-1.202-1.626c-1.165-2.082-3.075-3.756-5.511-4.583 l-79.508-26.985c-12.688-4.762-19.395-15.627-16.321-26.463c0.002-0.007,0.004-0.014,0.006-0.021 c0.003-0.008,0.005-0.017,0.007-0.025c1.429-4.99,4.711-9.129,9.247-11.656c4.506-2.511,9.715-3.134,14.683-1.757l89.593,28.391 c5.266,1.671,10.886-1.247,12.554-6.512c1.668-5.265-1.247-10.885-6.512-12.554l-71.255-22.58l-0.622-0.622 c-0.006-0.006-0.012-0.013-0.019-0.019l-36.89-36.89l31.708-11.354c0.107-0.039,0.239-0.088,0.345-0.131 c0.027-0.011,0.079-0.031,0.105-0.042c0.136-0.055,0.27-0.113,0.403-0.174c21.436-9.852,41.812-3.955,49.799-0.849 c30.183,13.581,46.293,22.87,58.063,29.657c16.364,9.437,24.249,13.984,46.518,15.823V165.983z M432.543,159.968H414.66V72.525 h17.883V159.968z M492,159.968h-39.457V53.891H492V159.968z"/> </g> </g> </symbol>
  <symbol id="search" viewBox="0 0 56.966 56.966"> <path d="M55.146,51.887L41.588,37.786c3.486-4.144,5.396-9.358,5.396-14.786c0-12.682-10.318-23-23-23s-23,10.318-23,23 s10.318,23,23,23c4.761,0,9.298-1.436,13.177-4.162l13.661,14.208c0.571,0.593,1.339,0.92,2.162,0.92 c0.779,0,1.518-0.297,2.079-0.837C56.255,54.982,56.293,53.08,55.146,51.887z M23.984,6c9.374,0,17,7.626,17,17s-7.626,17-17,17 s-17-7.626-17-17S14.61,6,23.984,6z"/> <g> </g> </symbol>
  <symbol id="user" viewBox="0 0 480 480"> <g> <g> <path d="M240,0C107.664,0,0,107.664,0,240c0,57.96,20.656,111.184,54.992,152.704c0.088,0.12,0.096,0.272,0.192,0.384 c24.792,29.896,55.928,52.816,90.624,67.624c0.4,0.168,0.792,0.352,1.192,0.52c2.808,1.184,5.648,2.28,8.496,3.352 c1.12,0.424,2.24,0.856,3.376,1.264c2.456,0.88,4.928,1.712,7.416,2.512c1.592,0.512,3.184,1.016,4.792,1.496 c2.2,0.656,4.408,1.288,6.632,1.888c1.952,0.528,3.92,1.016,5.888,1.488c1.992,0.48,3.992,0.96,6,1.384 c2.24,0.48,4.504,0.904,6.776,1.32c1.824,0.336,3.64,0.688,5.48,0.984c2.52,0.408,5.056,0.728,7.6,1.056 c1.64,0.208,3.272,0.448,4.92,0.624c2.88,0.304,5.784,0.52,8.696,0.72c1.352,0.096,2.696,0.24,4.056,0.312 c4.248,0.24,8.544,0.368,12.872,0.368s8.624-0.128,12.888-0.352c1.36-0.072,2.704-0.216,4.056-0.312 c2.912-0.208,5.816-0.416,8.696-0.72c1.648-0.176,3.28-0.416,4.92-0.624c2.544-0.328,5.08-0.648,7.6-1.056 c1.832-0.296,3.656-0.648,5.48-0.984c2.264-0.416,4.528-0.84,6.776-1.32c2.008-0.432,4-0.904,6-1.384 c1.968-0.48,3.936-0.968,5.888-1.488c2.224-0.592,4.432-1.232,6.632-1.888c1.608-0.48,3.2-0.984,4.792-1.496 c2.488-0.8,4.96-1.632,7.416-2.512c1.128-0.408,2.248-0.84,3.376-1.264c2.856-1.072,5.688-2.176,8.496-3.352 c0.4-0.168,0.792-0.352,1.192-0.52c34.688-14.808,65.832-37.728,90.624-67.624c0.096-0.112,0.104-0.272,0.192-0.384 C459.344,351.184,480,297.96,480,240C480,107.664,372.336,0,240,0z M337.256,441.76c-0.12,0.056-0.232,0.12-0.352,0.176 c-2.856,1.376-5.76,2.672-8.688,3.936c-0.664,0.28-1.32,0.568-1.984,0.848c-2.56,1.072-5.152,2.088-7.76,3.064 c-1.088,0.408-2.176,0.808-3.272,1.192c-2.312,0.824-4.632,1.616-6.976,2.368c-1.456,0.464-2.92,0.904-4.384,1.336 c-2.08,0.624-4.168,1.224-6.28,1.784c-1.776,0.472-3.568,0.904-5.36,1.328c-1.88,0.448-3.752,0.904-5.648,1.304 c-2.072,0.44-4.16,0.816-6.24,1.192c-1.688,0.312-3.368,0.64-5.072,0.912c-2.344,0.368-4.712,0.664-7.072,0.96 c-1.496,0.192-2.984,0.416-4.496,0.576c-2.696,0.288-5.416,0.472-8.128,0.664c-1.208,0.08-2.408,0.216-3.632,0.28 c-3.96,0.208-7.928,0.32-11.912,0.32s-7.952-0.112-11.904-0.32c-1.216-0.064-2.416-0.192-3.632-0.28 c-2.72-0.184-5.432-0.376-8.128-0.664c-1.512-0.16-3-0.384-4.496-0.576c-2.36-0.296-4.728-0.592-7.072-0.96 c-1.704-0.272-3.384-0.6-5.072-0.912c-2.088-0.376-4.176-0.76-6.24-1.192c-1.896-0.4-3.776-0.856-5.648-1.304 c-1.792-0.432-3.584-0.856-5.36-1.328c-2.104-0.56-4.2-1.168-6.28-1.784c-1.464-0.432-2.928-0.872-4.384-1.336 c-2.344-0.752-4.672-1.544-6.976-2.368c-1.096-0.392-2.184-0.792-3.272-1.192c-2.608-0.976-5.2-1.992-7.76-3.064 c-0.664-0.272-1.312-0.56-1.976-0.84c-2.928-1.256-5.832-2.56-8.696-3.936c-0.12-0.056-0.232-0.112-0.352-0.176 c-27.912-13.504-52.568-32.672-72.576-55.952c15.464-56.944,59.24-102.848,115.56-121.112c1.112,0.68,2.272,1.288,3.416,1.928 c0.672,0.376,1.336,0.776,2.016,1.136c2.384,1.264,4.8,2.448,7.272,3.512c1.896,0.832,3.856,1.536,5.808,2.256 c0.384,0.136,0.768,0.288,1.152,0.424c10.848,3.84,22.456,6.04,34.6,6.04s23.752-2.2,34.592-6.04 c0.384-0.136,0.768-0.288,1.152-0.424c1.952-0.72,3.912-1.424,5.808-2.256c2.472-1.064,4.888-2.248,7.272-3.512 c0.68-0.368,1.344-0.76,2.016-1.136c1.144-0.64,2.312-1.248,3.432-1.936c56.32,18.272,100.088,64.176,115.56,121.112 C389.824,409.08,365.168,428.248,337.256,441.76z M152,176c0-48.52,39.48-88,88-88s88,39.48,88,88 c0,30.864-16.008,58.024-40.128,73.736c-3.152,2.048-6.432,3.88-9.8,5.48c-0.4,0.192-0.792,0.392-1.192,0.576 c-23.168,10.536-50.592,10.536-73.76,0c-0.4-0.184-0.8-0.384-1.192-0.576c-3.376-1.6-6.648-3.432-9.8-5.48 C168.008,234.024,152,206.864,152,176z M421.832,370.584c-18.136-53.552-59.512-96.832-112.376-117.392 C330.6,234.144,344,206.64,344,176c0-57.344-46.656-104-104-104s-104,46.656-104,104c0,30.64,13.4,58.144,34.552,77.192 c-52.864,20.568-94.24,63.84-112.376,117.392C31.672,333.792,16,288.704,16,240C16,116.488,116.488,16,240,16s224,100.488,224,224 C464,288.704,448.328,333.792,421.832,370.584z"/> </g> </g> </symbol>
  <symbol id="pencil" viewBox="0 0 390.26 390.26"> <g> <g> <path d="M387.335,77.03l-74.2-74.1c-3.9-3.9-10.2-3.9-14.1,0l-62.9,62.8l-195,194.6c-1.4,1.2-2.4,2.7-3,4.4l-37.6,112.3 c-1.8,5.2,1.1,10.9,6.3,12.7c2.1,0.7,4.3,0.7,6.3,0l112.4-37.6c1.7-0.6,3.2-1.6,4.4-3l194.6-195l62.8-63 C391.235,87.23,391.235,80.93,387.335,77.03z M25.835,364.43l26.1-78l51.9,51.9L25.835,364.43z M122.335,328.43l-60.5-60.5 l181.3-181l60.2,60.2L122.335,328.43z M317.435,133.03l-60.1-60.2l48.8-48.7l60,60L317.435,133.03z"/> </g> </g> </symbol>
  <symbol id="trash" viewBox="0 0 512 512"> <g> <g> <path d="M456,58.755H326V20c0-11.046-8.954-20-20-20H206c-11.046,0-20,8.954-20,20v38.755H56c-11.046,0-20,8.954-20,20v78.34 c0,11.046,8.954,20,20,20h30V462c0,27.57,22.43,50,50,50h240c27.57,0,50-22.43,50-50V177.095h30c11.046,0,20-8.954,20-20v-78.34 C476,67.709,467.046,58.755,456,58.755z M226,40h60v18.755h-60V40z M386,462c0,5.514-4.486,10-10,10H136c-5.514,0-10-4.486-10-10 V177.095h260V462z M436,137.095c-10.717,0-341.452,0-360,0v-38.34h360V137.095z"/> </g> </g> <g> <g> <path d="M206,206.623c-11.046,0-20,8.954-20,20v195.851c0,11.045,8.954,19.999,20,19.999s20-8.954,20-20v-195.85 C226,215.577,217.046,206.623,206,206.623z"/> </g> </g> <g> <g> <path d="M306,206.623c-11.046,0-20,8.954-20,20v195.851c0,11.045,8.954,19.999,20,19.999c11.046,0,20-8.954,20-20v-195.85 C326,215.577,317.046,206.623,306,206.623z"/> </g> </g> </symbol>
</svg>
